<svg xmlns="http://www.w3.org/2000/svg" xmlns:xlink="http://www.w3.org/1999/xlink" width="189.141" height="184.544" viewBox="0 0 189.141 184.544">
  <defs>
    <filter id="Union_12" x="0" y="0" width="189.141" height="184.544" filterUnits="userSpaceOnUse">
      <feOffset dy="3" input="SourceAlpha"/>
      <feGaussianBlur stdDeviation="3" result="blur"/>
      <feFlood flood-opacity="0.161"/>
      <feComposite operator="in" in2="blur"/>
      <feComposite in="SourceGraphic"/>
    </filter>
    <linearGradient id="linear-gradient" x1="0.229" y1="0.073" x2="0.95" y2="0.91" gradientUnits="objectBoundingBox">
      <stop offset="0" stop-color="#fff" stop-opacity="0.502"/>
      <stop offset="1" stop-color="#fff" stop-opacity="0"/>
    </linearGradient>
  </defs>
  <g id="icon-掛號查詢" transform="translate(9.531 6.501)">
    <rect id="Rectangle_143767" data-name="Rectangle 143767" width="170" height="170" transform="translate(0 -2)" fill="none"/>
    <g id="Group_159861" data-name="Group 159861" transform="translate(0 -1.394)">
      <g transform="matrix(1, 0, 0, 1, -9.53, -5.11)" filter="url(#Union_12)">
        <path id="Union_12-2" data-name="Union 12" d="M-47.515-3569.969l-28.03-105.12a13.34,13.34,0,0,1,9.453-16.329l13.893-3.7-.72-5.756a13.342,13.342,0,0,1,11.582-14.9l77.73-9.728a13.734,13.734,0,0,1,1.674-.1,13.344,13.344,0,0,1,13.222,11.688l2.86,22.852a39.029,39.029,0,0,1,17.712,3.92,39.317,39.317,0,0,1,18.215,52.462,39.266,39.266,0,0,1-20.426,19.158L82.963-3577.9a5.4,5.4,0,0,1-3.475,6.959,5.464,5.464,0,0,1-4.152-.242,5.463,5.463,0,0,1-2.764-3.109l-13.62-38.5a39.151,39.151,0,0,1-21.339-3.675A39.316,39.316,0,0,1,19.4-3668.931a39.249,39.249,0,0,1,28.96-21.609L45.523-3713.2a7.538,7.538,0,0,0-7.458-6.6,7.823,7.823,0,0,0-.953.06l-77.73,9.728a7.532,7.532,0,0,0-6.538,8.409l13.508,107.952a7.538,7.538,0,0,0,7.459,6.6,7.771,7.771,0,0,0,.952-.06l75.243-9.435a2.9,2.9,0,0,1,3.244,2.521,2.9,2.9,0,0,1-2.521,3.242l-75.244,9.436a13.49,13.49,0,0,1-1.673.1,13.344,13.344,0,0,1-13.223-11.686L-51.472-3689.3l-13.124,3.5a7.493,7.493,0,0,0-4.807,3.932,7.882,7.882,0,0,0-.461,5.544L-41.9-3571.466a7.536,7.536,0,0,0,7.269,5.594,7.606,7.606,0,0,0,1.949-.257l53.823-14.353a2.906,2.906,0,0,1,3.556,2.059,2.9,2.9,0,0,1-2.059,3.555l-53.823,14.352a13.3,13.3,0,0,1-3.446.455A13.349,13.349,0,0,1-47.515-3569.969Zm74.244-95.41a31.166,31.166,0,0,0,14.437,41.584,31.144,31.144,0,0,0,41.491-14.483,31.077,31.077,0,0,0-14.345-41.539,30.921,30.921,0,0,0-13.521-3.114A31.187,31.187,0,0,0,26.729-3665.379Zm-40.074,53.038a2.906,2.906,0,0,1,2.523-3.243l32.533-4.072a45.678,45.678,0,0,0,5.91,5.116l-37.722,4.72a2.9,2.9,0,0,1-.366.023A2.906,2.906,0,0,1-13.345-3612.341Zm-2.507-20.039a2.9,2.9,0,0,1,2.521-3.244l23.939-3a46.479,46.479,0,0,0,2.079,5.595l-25.3,3.165a2.945,2.945,0,0,1-.366.023A2.9,2.9,0,0,1-15.852-3632.38Zm-2.508-20.04a2.9,2.9,0,0,1,2.521-3.243L9.19-3658.8a45.639,45.639,0,0,0-.506,5.918l-23.8,2.978a2.945,2.945,0,0,1-.366.023A2.9,2.9,0,0,1-18.36-3652.42Zm88.783-6.726a18.53,18.53,0,0,0-9.231-8.387,3,3,0,0,1-1.62-3.922,3,3,0,0,1,3.92-1.62,24.555,24.555,0,0,1,12.227,11.109,3,3,0,0,1-1.238,4.058,2.986,2.986,0,0,1-1.408.353A3,3,0,0,1,70.424-3659.146Zm-27.874-9.58a3,3,0,0,1,1.471-3.98,24.125,24.125,0,0,1,7.518-2.073,3,3,0,0,1,3.3,2.664,3,3,0,0,1-2.664,3.3,18.068,18.068,0,0,0-5.648,1.558,2.991,2.991,0,0,1-1.252.276A3,3,0,0,1,42.549-3668.726Zm-43.321-3.317a1.169,1.169,0,0,1-.443-.779l-.728-5.816-5.816.728a1.172,1.172,0,0,1-.864-.238,1.171,1.171,0,0,1-.444-.781l-.873-6.979a1.172,1.172,0,0,1,1.018-1.308l5.814-.728-.726-5.815a1.171,1.171,0,0,1,1.017-1.308l6.979-.874a1.175,1.175,0,0,1,.865.238,1.168,1.168,0,0,1,.443.781l.728,5.816,5.815-.728a1.171,1.171,0,0,1,.865.238,1.176,1.176,0,0,1,.445.78l.872,6.979a1.173,1.173,0,0,1-.237.865,1.17,1.17,0,0,1-.78.444l-5.816.727.727,5.816a1.168,1.168,0,0,1-.237.865,1.173,1.173,0,0,1-.78.444l-6.979.873a1.163,1.163,0,0,1-.142.009A1.178,1.178,0,0,1-.771-3672.043Z" transform="translate(85.53 3732.11)" fill="#fff" stroke="rgba(0,0,0,0)" stroke-width="1"/>
      </g>
      <circle id="Ellipse_14" data-name="Ellipse 14" cx="28" cy="28" r="28" transform="translate(103 47)" fill="url(#linear-gradient)" style="mix-blend-mode: overlay;isolation: isolate"/>
    </g>
  </g>
</svg>
