<svg xmlns="http://www.w3.org/2000/svg" xmlns:xlink="http://www.w3.org/1999/xlink" width="189.168" height="189" viewBox="0 0 189.168 189">
  <defs>
    <linearGradient id="linear-gradient" x1="0.229" y1="0.073" x2="0.95" y2="0.91" gradientUnits="objectBoundingBox">
      <stop offset="0" stop-color="#fff" stop-opacity="0.502"/>
      <stop offset="1" stop-color="#fff" stop-opacity="0"/>
    </linearGradient>
    <filter id="Union_13" x="0" y="0" width="189.168" height="189" filterUnits="userSpaceOnUse">
      <feOffset dy="3" input="SourceAlpha"/>
      <feGaussianBlur stdDeviation="3" result="blur"/>
      <feFlood flood-opacity="0.161"/>
      <feComposite operator="in" in2="blur"/>
      <feComposite in="SourceGraphic"/>
    </filter>
  </defs>
  <g id="icon-門診掛號" transform="translate(9.584 6.5)">
    <rect id="Rectangle_143771" data-name="Rectangle 143771" width="170" height="170" fill="none"/>
    <g id="Group_159872" data-name="Group 159872">
      <circle id="Ellipse_15" data-name="Ellipse 15" cx="27.5" cy="27.5" r="27.5" transform="translate(89 49)" fill="url(#linear-gradient)" style="mix-blend-mode: overlay;isolation: isolate"/>
      <g transform="matrix(1, 0, 0, 1, -9.58, -6.5)" filter="url(#Union_13)">
        <path id="Union_13-2" data-name="Union 13" d="M-423.475-3555h-143.05a13.476,13.476,0,0,1-11.059-5.777,13.477,13.477,0,0,1-1.625-12.246,2.576,2.576,0,0,1,.092-.252l10.867-29.335v-83.921a10.32,10.32,0,0,1,8.524-10.15,91.628,91.628,0,0,1-1.835-11.926,10.509,10.509,0,0,1,2.721-7.99,10.649,10.649,0,0,1,7.836-3.446h.7a7.443,7.443,0,0,1,1.734-2.727,7.464,7.464,0,0,1,5.328-2.216,7.491,7.491,0,0,1,5.332,2.2,7.431,7.431,0,0,1,2.2,5.321,7.477,7.477,0,0,1-2.216,5.338,7.413,7.413,0,0,1-5.249,2.178h-.078a7.436,7.436,0,0,1-5.3-2.2,7.48,7.48,0,0,1-1.752-2.744h-.7a5.494,5.494,0,0,0-4.038,1.773,5.27,5.27,0,0,0-1.386,4.059c1.8,20.264,9.986,36.214,19.928,40.127q.067.024.131.051a12.813,12.813,0,0,0,4.6.872c12,0,22.609-17.655,24.67-41.063a5.245,5.245,0,0,0-1.388-4.042,5.465,5.465,0,0,0-4.022-1.779h-.7a7.552,7.552,0,0,1-7.089,4.955,7.59,7.59,0,0,1-7.519-7.543,7.585,7.585,0,0,1,7.519-7.517h.025a7.587,7.587,0,0,1,7.051,4.954h.718a10.638,10.638,0,0,1,7.821,3.451,10.477,10.477,0,0,1,2.723,7.972,91.62,91.62,0,0,1-1.8,11.789h71.692a10.316,10.316,0,0,1,10.3,10.3v83.865l10.892,29.4q.046.108.082.222a13.472,13.472,0,0,1-1.617,12.263A13.483,13.483,0,0,1-423.474-3555Zm-149.885-8.719a8.219,8.219,0,0,0,6.832,3.567h143.053a8.223,8.223,0,0,0,6.832-3.568,8.207,8.207,0,0,0,1.409-5.966H-574.769A8.211,8.211,0,0,0-573.36-3563.719Zm156.4-11.12-9.162-24.734H-563.885l-9.162,24.733h55.259l2.316-8.943a2.577,2.577,0,0,1,2.494-1.93h35.954a2.578,2.578,0,0,1,2.494,1.93l2.317,8.943Zm-60.578,0-1.481-5.721h-31.97l-1.481,5.721Zm50.611-29.9v-81.792a5.157,5.157,0,0,0-5.152-5.151h-73.013c-3.834,13.107-10.507,22.83-18.492,26.825v4.766a8.2,8.2,0,0,1-5.6,7.765v21.764c0,1.69.528,10.118,10.987,10.118,2.579,0,10.992-.728,10.992-10.118v-10.519a9.07,9.07,0,0,1-4.886-3.511,9.069,9.069,0,0,1-1.529-6.822,9.071,9.071,0,0,1,3.747-5.9,9.063,9.063,0,0,1,6.822-1.528,9.146,9.146,0,0,1,7.428,10.568,9.143,9.143,0,0,1-6.417,7.191v10.52c0,7.051-4.232,15.283-16.157,15.283-12.75,0-16.152-9.607-16.152-15.283v-21.757a8.01,8.01,0,0,1-3.218-2,8.2,8.2,0,0,1-2.377-5.774v-4.76c-7.976-3.989-14.649-13.707-18.489-26.809a5.157,5.157,0,0,0-4.666,5.128v81.792h87.012L-487-3613.617a6.322,6.322,0,0,1-2.7-4.457,6.911,6.911,0,0,1,3.276-5.417,7.313,7.313,0,0,1,3.808-1.07,7.278,7.278,0,0,1,2.71.522l8.947,3.935v-25.3c0-4.1,3.8-8.275,7.526-8.275h.111c3.9,0,6.308,4.295,6.308,8.275v15.739l9.126,1.384a18.312,18.312,0,0,1,10.94,5.72,16.956,16.956,0,0,1,4.038,11.2v.184a17.062,17.062,0,0,1-.884,6.438Zm-11.277,0,.005-.013a14.067,14.067,0,0,0,.973-6.363v-.211a12.852,12.852,0,0,0-10.98-12.814l0-.026-10.483-1.644a2.817,2.817,0,0,1-2.714-2.393l0-17.2c0-1.46-.251-3.907-1.939-3.907a4.047,4.047,0,0,0-3.252,3.911v28.409a2.474,2.474,0,0,1-.879,1.775,1.762,1.762,0,0,1-1.175.445,1.765,1.765,0,0,1-.862-.225l-12.041-5.12a2.628,2.628,0,0,0-.975-.187,2.639,2.639,0,0,0-1.384.392,2.732,2.732,0,0,0-1.418,1.874,2.183,2.183,0,0,0,1.112,1.313l14.482,11.982Zm-69.1-48.914a4.632,4.632,0,0,0-1.914,3.01,4.637,4.637,0,0,0,.782,3.478,4.636,4.636,0,0,0,3.009,1.914,4.683,4.683,0,0,0,5.392-3.787,4.667,4.667,0,0,0-3.79-5.394,4.819,4.819,0,0,0-.806-.069A4.639,4.639,0,0,0-507.3-3653.653Zm-27.491-6.436a3.072,3.072,0,0,0,.9,2.159,2.967,2.967,0,0,0,2.131.868,3.032,3.032,0,0,0,3.029-3.03v-3.036a17.388,17.388,0,0,1-3.041.269,17.313,17.313,0,0,1-3.018-.265Zm12.117-57.394a2.411,2.411,0,0,0,2.379,2.391,2.379,2.379,0,0,0,2.378-2.3q0-.037,0-.074c0-.018,0-.035,0-.052a2.412,2.412,0,0,0-2.378-2.325A2.407,2.407,0,0,0-522.674-3717.483Zm-22.245-1.654a2.311,2.311,0,0,0-.679,1.654v.026a2.318,2.318,0,0,0,.687,1.665,2.336,2.336,0,0,0,1.677.687h.025a2.313,2.313,0,0,0,1.642-.678,2.374,2.374,0,0,0,.7-1.7,2.323,2.323,0,0,0-.687-1.665,2.893,2.893,0,0,0-1.676-.687A2.358,2.358,0,0,0-544.919-3719.137Zm67.281,78.829-5.344.014a1.551,1.551,0,0,1-.555.085,2.149,2.149,0,0,1-.649-.1,2.168,2.168,0,0,1-1.284-1.068,2.167,2.167,0,0,1-.152-1.664,2.175,2.175,0,0,1,2.084-1.539,2.173,2.173,0,0,1,.651.1l5.343-.014a1.584,1.584,0,0,1,.555-.085,2.19,2.19,0,0,1,.649.1,2.172,2.172,0,0,1,1.285,1.068,2.177,2.177,0,0,1,.151,1.665,2.173,2.173,0,0,1-2.084,1.537A2.135,2.135,0,0,1-477.638-3640.308Zm27.194.09a2.18,2.18,0,0,1-2.178-2.016l-.006,0v-.169h.007a2.182,2.182,0,0,1,2.176-2.015h5.434a2.181,2.181,0,0,1,1.531,1.451,2.189,2.189,0,0,1-1.438,2.734l-.046.013Zm-1.491-11.976a2.188,2.188,0,0,1-1.183-.486,2.188,2.188,0,0,1-.3-3.075l3.769-3.77a1.986,1.986,0,0,1,.865-.846,2.2,2.2,0,0,1,1.012-.251,2.182,2.182,0,0,1,1.936,1.17,2.176,2.176,0,0,1,.151,1.666,2.165,2.165,0,0,1-1.07,1.283l-3.674,3.693a2.181,2.181,0,0,1-1.467.616h-.018Zm-25.674-.557-3.847-3.787a2.18,2.18,0,0,1-.057-2.105,2.182,2.182,0,0,1,1.937-1.169,2.2,2.2,0,0,1,1.012.25l3.824,3.8a2.193,2.193,0,0,1,.058,2.021,2.174,2.174,0,0,1-1.959,1.214A2.173,2.173,0,0,1-477.609-3652.752Zm12.217-5.975v-5.435a2.187,2.187,0,0,1,1.452-1.529,2.188,2.188,0,0,1,.648-.1,2.176,2.176,0,0,1,2.087,1.535l.013,5.434a2.022,2.022,0,0,1-2.016,2.278A2.089,2.089,0,0,1-465.392-3658.727Z" transform="translate(589.58 3731.5)" fill="#fff" stroke="rgba(0,0,0,0)" stroke-width="1"/>
      </g>
    </g>
  </g>
</svg>
