<svg xmlns="http://www.w3.org/2000/svg" width="36" height="36" viewBox="0 0 36 36">
  <g id="icon-global" transform="translate(-31.678 -426.648)">
    <path id="Path_11872" data-name="Path 11872" d="M41.158,452.926c0-.12-3.24-1.68-3.24-1.68a2.887,2.887,0,0,1-1.56-2.64,16.285,16.285,0,0,0-.12-3.36c-2.4-2.16-2.04-1.92-3.48-6.48a17.285,17.285,0,0,0-1.08,6.12,17.976,17.976,0,0,0,11.76,16.8c-2.76-5.28-2.28-3.24-2.28-8.76" transform="translate(0 -0.239)" fill="#fff"/>
    <path id="Path_11873" data-name="Path 11873" d="M59.038,443.806h-5.88c-.48-.36-2.28,3.84-2.28,3.84v5.64c0,.6,5.28,2.16,5.28,2.16,2.76.6,2.04,5.4,2.04,5.4a18.234,18.234,0,0,0,9.48-14.64c-3.84-.24-3.12.72-8.64-2.4" transform="translate(0 -0.239)" fill="#fff"/>
    <path id="Path_11874" data-name="Path 11874" d="M55.8,461.575v-3.934l-5.28-1.907a2.828,2.828,0,0,1-2.04-2.742v-5.484c0-1.311,2.04-4.768,2.04-4.768a3.131,3.131,0,0,1,2.64-1.55s6.48-.238,6.96.238l3.84,1.907,3.6.119a14.943,14.943,0,0,0-.6-3.338l-5.4-3.576c-.24-.238-3.96,1.788-3.96,1.788-.72.6-3.96.238-3.96.238-1.08.477-4.44-1.788-2.04-4.887,0,0,1.8-2.742,3.96-2.265.24,0,0-3.7,0-3.7a16.729,16.729,0,0,0-6-1.073,17.867,17.867,0,0,0-15.36,8.7l2.16,6.556s2.52,1.788,2.28,3.457V448.7c0,.119,3.24,1.669,3.24,1.669a2.8,2.8,0,0,1,1.68,2.623v3.576l2.04,4.053a3.515,3.515,0,0,1,.24,1.669,18.95,18.95,0,0,0,9.96-.715" fill="#fff"/>
    <path id="Path_11875" data-name="Path 11875" d="M58.078,428.926v2.28c.12,3-3.12,2.88-3.24,3,0,0-1.56,1.44-1.56,1.8,0,.84,3.36.48,3.48.48l3.6-1.8c2.04-1.32,5.16,1.8,5.16,1.8a18.071,18.071,0,0,0-7.44-7.56" fill="#fff"/>
  </g>
</svg>
