<svg xmlns="http://www.w3.org/2000/svg" xmlns:xlink="http://www.w3.org/1999/xlink" width="185.239" height="188.708" viewBox="0 0 185.239 188.708">
  <defs>
    <filter id="Union_7" x="0" y="0" width="185.239" height="188.708" filterUnits="userSpaceOnUse">
      <feOffset dy="3" input="SourceAlpha"/>
      <feGaussianBlur stdDeviation="3" result="blur"/>
      <feFlood flood-opacity="0.161"/>
      <feComposite operator="in" in2="blur"/>
      <feComposite in="SourceGraphic"/>
    </filter>
  </defs>
  <g id="icon-看診進度" transform="translate(6.501 4.5)">
    <rect id="Rectangle_143768" data-name="Rectangle 143768" width="170" height="170" transform="translate(1 2)" fill="none"/>
    <g transform="matrix(1, 0, 0, 1, -6.5, -4.5)" filter="url(#Union_7)">
      <path id="Union_7-2" data-name="Union 7" d="M-200.515-3825.669a18.367,18.367,0,0,1,18.376-18.378,18.367,18.367,0,0,1,18.378,18.378,18.364,18.364,0,0,1-18.378,18.377A18.367,18.367,0,0,1-200.515-3825.669Zm6.072.013a12.312,12.312,0,0,0,12.319,12.319,12.311,12.311,0,0,0,12.318-12.319,12.312,12.312,0,0,0-12.318-12.318A12.311,12.311,0,0,0-194.443-3825.656ZM-295.9-3810.6v-6h6v6Zm-12,0v-6h6v6Zm-12,0v-6h6v6Zm131.032-15.07a6.738,6.738,0,0,1,6.741-6.742,6.738,6.738,0,0,1,6.742,6.742,6.737,6.737,0,0,1-6.742,6.742A6.738,6.738,0,0,1-188.881-3825.67Zm-85.614-4.411a27.526,27.526,0,0,1-8.952-20.224v-1.119a2.715,2.715,0,0,1,2.715-2.715,2.715,2.715,0,0,1,2.715,2.715v.41c0,11.914,8.983,21.838,20.45,22.594q.749.051,1.5.052a21.787,21.787,0,0,0,14.953-5.929,21.932,21.932,0,0,0,6.965-16.006v-11.919c0-14.467,10.865-26.8,24.735-28.074.89-.082,1.786-.125,2.666-.125a26.91,26.91,0,0,1,18.374,7.125,27.412,27.412,0,0,1,8.948,20.194v13.768a2.715,2.715,0,0,1-2.72,2.716,2.716,2.716,0,0,1-2.711-2.716v-13.031c0-11.915-8.983-21.84-20.45-22.595-.5-.034-1-.051-1.5-.051a21.878,21.878,0,0,0-14.944,5.919,21.944,21.944,0,0,0-6.975,16.015v11.919c0,14.466-10.864,26.8-24.734,28.073-1,.085-1.893.128-2.7.128A26.8,26.8,0,0,1-274.494-3830.082Zm-15.939-35.665v-6.974A49.192,49.192,0,0,1-330-3921.02v-9.5a6.453,6.453,0,0,1,4.638-6.173V-3963.6a8.959,8.959,0,0,1,8.96-8.96l1,0a6.276,6.276,0,0,1,5.974-4.438h6.2a6.316,6.316,0,0,1,6.23,7.159,6.43,6.43,0,0,1-6.446,5.442h-5.986a6.275,6.275,0,0,1-5.974-4.438h-1.023a5.262,5.262,0,0,0-5.262,5.262v26.91a6.246,6.246,0,0,1,4.418,4.662,7.224,7.224,0,0,1,.218,1.815v8.114c0,20,15.135,36.413,34.478,37.351a36.024,36.024,0,0,0,26.853-9.983,35.894,35.894,0,0,0,11.293-26.257v-9.5a6.45,6.45,0,0,1,4.637-6.174v-26.908a5.261,5.261,0,0,0-5.262-5.262h-1.28a6.275,6.275,0,0,1-5.974,4.438h-6.2a6.289,6.289,0,0,1-6.232-7.123,6.461,6.461,0,0,1,6.478-5.479h5.955a6.274,6.274,0,0,1,5.974,4.438h1.28a8.96,8.96,0,0,1,8.96,8.96l0,26.909a6.248,6.248,0,0,1,4.419,4.668,7.259,7.259,0,0,1,.218,1.821v9.185a49.191,49.191,0,0,1-39.514,48.274v6.971a9.73,9.73,0,0,1-9.73,9.73A9.73,9.73,0,0,1-290.433-3865.747Zm-21.447-105.622a1.693,1.693,0,0,1,.143.682,2,2,0,0,1-.143.712,2.569,2.569,0,0,0,2.475,1.877h6.2a2.6,2.6,0,0,0,2.589-2.589,2.6,2.6,0,0,0-2.589-2.589h-6.2A2.586,2.586,0,0,0-311.88-3971.368Zm50.776.681a2.6,2.6,0,0,0,2.589,2.589h6.2a2.6,2.6,0,0,0,2.589-2.589,2.6,2.6,0,0,0-2.589-2.589h-6.2A2.6,2.6,0,0,0-261.1-3970.687Z" transform="translate(339.5 3983.5)" fill="#fff" stroke="rgba(0,0,0,0)" stroke-width="1"/>
    </g>
  </g>
</svg>
