<svg xmlns="http://www.w3.org/2000/svg" width="36" height="36" viewBox="0 0 36 36">
  <g id="icon-pill" transform="translate(-114.678 782.232)">
    <path id="Path_11884" data-name="Path 11884" d="M122.885,142.967a11.108,11.108,0,0,1,0-22.215l.6,0-.567-1.348a9.018,9.018,0,0,1,16.6-7.037l7.579,18a9.044,9.044,0,0,1-8.051,12.562l-.257,0a9.027,9.027,0,0,1-7.292-3.732l-.149-.205-.166.19a11.034,11.034,0,0,1-8.3,3.774m-8.66-9.72a8.766,8.766,0,0,0,17.318,0l.037-.235H114.187Zm26.915-10.72a26.393,26.393,0,0,0-8.864,3.06l-.186.105.116.181a11.116,11.116,0,0,1,.609,10.888l-.044.091.045.091a6.717,6.717,0,0,0,12.169-5.671L141.3,122.5Zm-18.255.532a8.789,8.789,0,0,0-8.659,7.411l-.037.236h17.394l-.038-.236a8.793,8.793,0,0,0-8.66-7.411m8.395-13.773a6.736,6.736,0,0,0-6.242,9.216l1.155,2.757.088.028a11.149,11.149,0,0,1,4.2,2.5l.109.1.131-.076a28.706,28.706,0,0,1,9.4-3.461l.248-.046-2.964-7.045a6.718,6.718,0,0,0-6.125-3.98" transform="translate(2.863 -889.199)" fill="#fff"/>
  </g>
</svg>
