<svg xmlns="http://www.w3.org/2000/svg" width="36" height="36" viewBox="0 0 36 36">
  <g id="icon-patient" transform="translate(-619.678 782.232)">
    <path id="Path_10896" data-name="Path 10896" d="M18,11.817a3.569,3.569,0,1,0-3.569-3.569A3.57,3.57,0,0,0,18,11.817m3.407,1.44H14.593a4.087,4.087,0,0,0-4.032,3.569H25.441a4.087,4.087,0,0,0-4.034-3.569M31.705,0H4.295A4.3,4.3,0,0,0,0,4.295v27.41A4.3,4.3,0,0,0,4.295,36h27.41A4.3,4.3,0,0,0,36,31.705V4.295A4.3,4.3,0,0,0,31.705,0M21.55,28.786a.971.971,0,0,1-.695.29H18.981v1.872a.982.982,0,0,1-1.964,0V29.075H15.142a.983.983,0,0,1,0-1.966h1.876V25.236a.982.982,0,1,1,1.964,0V27.11h1.874a.983.983,0,0,1,.981.981.973.973,0,0,1-.286.695m11.479-9.844a2.991,2.991,0,0,1-2.133.884H5.11A3.019,3.019,0,0,1,2.1,16.81V4.849A3.019,3.019,0,0,1,5.11,1.834H31.226A2.674,2.674,0,0,1,33.9,4.505l.011,12.3a3,3,0,0,1-.882,2.133" transform="translate(619.678 -782.232)" fill="#fff"/>
  </g>
</svg>
