<svg xmlns="http://www.w3.org/2000/svg" xmlns:xlink="http://www.w3.org/1999/xlink" width="129.012" height="129" viewBox="0 0 129.012 129">
  <defs>
    <filter id="Union_11" x="0" y="0" width="129.012" height="129" filterUnits="userSpaceOnUse">
      <feOffset dy="3" input="SourceAlpha"/>
      <feGaussianBlur stdDeviation="3" result="blur"/>
      <feFlood flood-opacity="0.161"/>
      <feComposite operator="in" in2="blur"/>
      <feComposite in="SourceGraphic"/>
    </filter>
  </defs>
  <g id="icon-慢箋領藥" transform="translate(-3.488 -5.089)">
    <rect id="Rectangle_143793" data-name="Rectangle 143793" width="110" height="110" transform="translate(13 11.589)" fill="none"/>
    <g transform="matrix(1, 0, 0, 1, 3.49, 5.09)" filter="url(#Union_11)">
      <path id="Union_11-2" data-name="Union 11" d="M-64.286-3877.085a27.687,27.687,0,0,1-10.318,3.818,28.127,28.127,0,0,1-32.113-23.473,28.123,28.123,0,0,1,12.33-27.432,28.126,28.126,0,0,1,38.975,7.946l3.533-8.425q.231-.614.506-1.212a18.75,18.75,0,0,1,24.859-9.228,18.752,18.752,0,0,1,9.227,24.86l-13.07,31.7a18.74,18.74,0,0,1-8.635,9.405A18.668,18.668,0,0,1-47.645-3867,18.749,18.749,0,0,1-64.286-3877.085Zm5.084-13.472a12.509,12.509,0,0,0-.821,6.7,12.5,12.5,0,0,0,14.244,10.476,12.105,12.105,0,0,0,2.882-.794,12.331,12.331,0,0,0,6.763-6.744l5.414-12.987-23.063-9.6Zm-20.625,11.334a21.239,21.239,0,0,0,4.258-.224,21.885,21.885,0,0,0,9.439-3.776,18.231,18.231,0,0,1,1.276-9.687l6.547-15.69-.1-.047a22.033,22.033,0,0,0-13.428-12.935Zm-19.844-28.766a21.874,21.874,0,0,0,13.818,27.677l7.834-42.584a20.9,20.9,0,0,0-4.267.219,21.873,21.873,0,0,0-15.529,10.592h0A21.819,21.819,0,0,0-99.671-3907.989Zm53.695-14.292-5.417,12.985,23.1,9.636,5.421-12.986a12.515,12.515,0,0,0-6.733-16.369,12.468,12.468,0,0,0-4.813-.968A12.521,12.521,0,0,0-45.976-3922.281Zm40.909-8.9a.819.819,0,0,1-.818-.819v-2.8a.821.821,0,0,0-.818-.818h-2.8a.819.819,0,0,1-.819-.818v-2.812a.82.82,0,0,1,.819-.819h2.8a.819.819,0,0,0,.818-.818v-2.8a.818.818,0,0,1,.818-.819h2.8a.82.82,0,0,1,.819.82v2.806a.821.821,0,0,0,.82.819h2.8a.818.818,0,0,1,.818.818v2.81a.818.818,0,0,1-.821.815h-2.8a.82.82,0,0,0-.82.818v2.8a.82.82,0,0,1-.818.819Zm-70.971-10.1a.821.821,0,0,1-.819-.819v-2.8a.821.821,0,0,0-.818-.818h-2.8a.819.819,0,0,1-.818-.82v-2.811a.821.821,0,0,1,.818-.821h2.8a.819.819,0,0,0,.818-.817v-2.8a.819.819,0,0,1,.819-.818h2.8a.82.82,0,0,1,.819.819v2.806a.819.819,0,0,0,.819.819h2.8a.819.819,0,0,1,.82.819v2.809a.82.82,0,0,1-.822.816h-2.8a.819.819,0,0,0-.819.819v2.8a.82.82,0,0,1-.818.819Zm23.457-6.956a2.27,2.27,0,0,1-.665-1.6v-6.04h-6.038a2.251,2.251,0,0,1-1.6-.663,2.26,2.26,0,0,1-.665-1.6v-8.292a2.267,2.267,0,0,1,2.26-2.262h6.039v-6.039a2.266,2.266,0,0,1,2.259-2.26h8.3a2.266,2.266,0,0,1,1.6.66,2.268,2.268,0,0,1,.665,1.6v6.035h6.037a2.263,2.263,0,0,1,2.261,2.257v8.3a2.254,2.254,0,0,1-.665,1.6,2.252,2.252,0,0,1-1.592.661h-6.039v6.038a2.261,2.261,0,0,1-2.256,2.26l-8.3,0A2.253,2.253,0,0,1-52.581-3948.238Zm-4.442-14.917v1.745a1.01,1.01,0,0,0,1.01,1.01h5.272a2.017,2.017,0,0,1,2.017,2.018v5.272a1.01,1.01,0,0,0,1.01,1.009h1.759a1.01,1.01,0,0,0,1.009-1.009v-5.273a2.018,2.018,0,0,1,2.018-2.018h5.273a1.01,1.01,0,0,0,1.01-1.01v-1.76a1.01,1.01,0,0,0-1.012-1.009l-5.265.011a2.018,2.018,0,0,1-2.023-2.017v-5.283a1.009,1.009,0,0,0-1.009-1.009h-1.759a1.009,1.009,0,0,0-1.01,1.009v5.287a2.018,2.018,0,0,1-2.018,2.018h-5.272A1.01,1.01,0,0,0-57.022-3963.155Z" transform="translate(116.51 3983.5)" fill="#fff" stroke="rgba(0,0,0,0)" stroke-width="1"/>
    </g>
  </g>
</svg>
