<svg xmlns="http://www.w3.org/2000/svg" xmlns:xlink="http://www.w3.org/1999/xlink" width="110.338" height="118.594" viewBox="0 0 110.338 118.594">
  <defs>
    <filter id="Union_8" x="0" y="0" width="109.931" height="118.594" filterUnits="userSpaceOnUse">
      <feOffset dy="3" input="SourceAlpha"/>
      <feGaussianBlur stdDeviation="3" result="blur"/>
      <feFlood flood-opacity="0.161"/>
      <feComposite operator="in" in2="blur"/>
      <feComposite in="SourceGraphic"/>
    </filter>
  </defs>
  <g id="icon-該看哪科" transform="translate(5.338 -6.5)">
    <rect id="Rectangle_143792" data-name="Rectangle 143792" width="110" height="110" transform="translate(-5 8)" fill="none"/>
    <g transform="matrix(1, 0, 0, 1, -5.34, 6.5)" filter="url(#Union_8)">
      <path id="Union_8-2" data-name="Union 8" d="M-823.033-3867.406c-9.461,0-24.965-1.3-30.163-2.541A18.1,18.1,0,0,1-863-3875.88a19.167,19.167,0,0,1-4.672-10.46l-.01-.118a63.322,63.322,0,0,1-.263-8.8l0-.148a43.358,43.358,0,0,1,.276-7.209l.012-.108a16.1,16.1,0,0,1,4.63-9.674,16.413,16.413,0,0,1,9.75-4.7c5.923-.625,23.885-.941,32.277-.941,9.716,0,23.6.36,29.1.941a16.416,16.416,0,0,1,9.741,4.7,16.106,16.106,0,0,1,4.631,9.667l.012.12a63.5,63.5,0,0,1,.428,7.269,84.813,84.813,0,0,1-.427,8.9l-.012.108a19.067,19.067,0,0,1-4.671,10.469,18.184,18.184,0,0,1-9.779,5.932c-5.7,1.29-19.484,2.512-28.359,2.512h-.627c-.659.023-1.319.023-2.009.023Zm-29.632-43.571a10.192,10.192,0,0,0-6.041,2.933,9.931,9.931,0,0,0-2.855,5.934l-.008.242a41.489,41.489,0,0,0-.257,5.9s.022.294.024.366l0,.72a57.152,57.152,0,0,0,.246,7.723v.094a12.9,12.9,0,0,0,3.194,7.115,12.168,12.168,0,0,0,6.406,3.952l.188.044c4.279,1.016,19.269,2.376,28.734,2.376.673,0,1.3-.008,1.877-.021h.816c8.917,0,22.289-1.3,26.98-2.357l.128-.031a12,12,0,0,0,6.394-3.949,12.783,12.783,0,0,0,3.181-7.025l.006-.248a76.978,76.978,0,0,0,.388-7.975v-.319h-.008a58.46,58.46,0,0,0-.381-6.415v-.1a9.965,9.965,0,0,0-2.878-6.02,10.15,10.15,0,0,0-6.039-2.924c-1.165-.128-2.8-.245-5.285-.373l-.511-.02v11.471l.1.061a6.276,6.276,0,0,1,2.96,4.368,6.277,6.277,0,0,1-1.413,5.084,6.279,6.279,0,0,1-4.79,2.216,6.276,6.276,0,0,1-4.789-2.216,6.27,6.27,0,0,1-1.413-5.084,6.273,6.273,0,0,1,2.958-4.368l.1-.061V-3911.6l-1.828-.07c-4.8-.134-10.075-.212-14.478-.212h-.071c-3.67,0-8.435.056-13.072.149l-2.341.06v5.8l.151.092a12.12,12.12,0,0,1,6.292,4.319,12.114,12.114,0,0,1,2.429,7.234v2.94a3.152,3.152,0,0,1-1.571,2.722,3.166,3.166,0,0,1-1.571.42,3.161,3.161,0,0,1-1.571-.42,3.152,3.152,0,0,1-1.571-2.722v-2.94a5.745,5.745,0,0,0-2.865-4.961,5.741,5.741,0,0,0-2.864-.768,5.741,5.741,0,0,0-2.864.768,5.748,5.748,0,0,0-2.863,4.961v2.935a3.151,3.151,0,0,1-1.571,2.723,3.155,3.155,0,0,1-1.571.421,3.158,3.158,0,0,1-1.572-.421,3.153,3.153,0,0,1-1.571-2.723v-2.939a12.1,12.1,0,0,1,2.43-7.233,12.1,12.1,0,0,1,6.291-4.319l.151-.044v-5.683C-847.48-3911.353-850.823-3911.173-852.664-3910.977Zm30.115-12.729a21.5,21.5,0,0,1-15.306-6.341,21.5,21.5,0,0,1-6.34-15.306,21.5,21.5,0,0,1,6.34-15.307,21.509,21.509,0,0,1,15.308-6.34,21.509,21.509,0,0,1,15.307,6.341,21.508,21.508,0,0,1,6.339,15.307,21.5,21.5,0,0,1-6.341,15.307,21.5,21.5,0,0,1-15.3,6.339Zm-10.858-32.5a15.278,15.278,0,0,0-4.5,10.859,15.262,15.262,0,0,0,4.5,10.863,15.264,15.264,0,0,0,10.865,4.5,15.265,15.265,0,0,0,10.863-4.5,15.267,15.267,0,0,0,4.5-10.865,15.263,15.263,0,0,0-4.5-10.863,15.264,15.264,0,0,0-10.862-4.5A15.281,15.281,0,0,0-833.408-3956.211Z" transform="translate(877.51 3973.5)" fill="#fff" stroke="rgba(0,0,0,0)" stroke-width="1"/>
    </g>
  </g>
</svg>
