<svg xmlns="http://www.w3.org/2000/svg" xmlns:xlink="http://www.w3.org/1999/xlink" width="113.402" height="114.031" viewBox="0 0 113.402 114.031">
  <defs>
    <filter id="Path_11972" x="0" y="2" width="113.402" height="112.031" filterUnits="userSpaceOnUse">
      <feOffset dy="3" input="SourceAlpha"/>
      <feGaussianBlur stdDeviation="3" result="blur"/>
      <feFlood flood-opacity="0.161"/>
      <feComposite operator="in" in2="blur"/>
      <feComposite in="SourceGraphic"/>
    </filter>
  </defs>
  <g id="icon-樓層配置" transform="translate(-584.247 -671.142)">
    <rect id="Rectangle_143765" data-name="Rectangle 143765" width="110" height="110" transform="translate(586.247 671.142)" fill="none"/>
    <g transform="matrix(1, 0, 0, 1, 584.25, 671.14)" filter="url(#Path_11972)">
      <path id="Path_11972-2" data-name="Path 11972" d="M109.17,440.859a3.354,3.354,0,0,1-1.567-.391L63.252,416.82a3.294,3.294,0,0,1-1.625-1.971,3.339,3.339,0,0,1,4.759-3.926l42.791,22.822,42.974-22.919.079-.026a3.339,3.339,0,0,1,2.875,6.02l-44.368,23.648a3.354,3.354,0,0,1-1.567.391m0-20.018a3.364,3.364,0,0,1-1.57-.391L63.252,396.8a3.338,3.338,0,1,1,3.135-5.894L109.18,413.73l42.547-22.7v-.016l.244-.131a3.34,3.34,0,0,1,3.137,5.9l-44.371,23.664a3.307,3.307,0,0,1-1.565.393m0-20.034a3.348,3.348,0,0,1-1.567-.393l-44.35-23.648a3.337,3.337,0,0,1,0-5.9l44.366-23.645a3.3,3.3,0,0,1,3.135,0l44.353,23.648a3.335,3.335,0,0,1,0,5.894l-44.368,23.648a3.348,3.348,0,0,1-1.567.393M71.906,373.825l37.274,19.814,37.269-19.814L109.18,353.944Z" transform="translate(-52.48 -338.83)" fill="#fff"/>
    </g>
  </g>
</svg>
