<svg xmlns="http://www.w3.org/2000/svg" xmlns:xlink="http://www.w3.org/1999/xlink" width="125.505" height="118" viewBox="0 0 125.505 118">
  <defs>
    <filter id="Union_10" x="0" y="0" width="125.505" height="118" filterUnits="userSpaceOnUse">
      <feOffset dy="3" input="SourceAlpha"/>
      <feGaussianBlur stdDeviation="3" result="blur"/>
      <feFlood flood-opacity="0.161"/>
      <feComposite operator="in" in2="blur"/>
      <feComposite in="SourceGraphic"/>
    </filter>
  </defs>
  <g id="icon-就醫指南" transform="translate(7.318 0.5)">
    <rect id="Rectangle_143766" data-name="Rectangle 143766" width="110" height="110" transform="translate(0.234)" fill="none"/>
    <g transform="matrix(1, 0, 0, 1, -7.32, -0.5)" filter="url(#Union_10)">
      <path id="Union_10-2" data-name="Union 10" d="M-857.615-4131.5a4.361,4.361,0,0,1-3.5-1.634,4.12,4.12,0,0,1-.412-4.345l7.712-15.443v-27.311a2.278,2.278,0,0,1,2.278-2.277,2.278,2.278,0,0,1,2.278,2.277v25.578h33.792v-17.866a10.123,10.123,0,0,1,2.556-6.879,9.665,9.665,0,0,1,7.162-3.15h6.336a10.678,10.678,0,0,1-3.318-2.248,10.624,10.624,0,0,1-3.134-7.562,10.624,10.624,0,0,1,3.134-7.563,10.623,10.623,0,0,1,7.563-3.132,10.62,10.62,0,0,1,7.563,3.132,10.62,10.62,0,0,1,3.134,7.563,10.62,10.62,0,0,1-3.134,7.563,10.671,10.671,0,0,1-3.288,2.248h6a10.111,10.111,0,0,1,6.879,2.559,9.671,9.671,0,0,1,3.146,7.159v14.877a7.711,7.711,0,0,1-.759,3.3h7.36v-58.672h-34.858a2.278,2.278,0,0,1-2.278-2.279,2.278,2.278,0,0,1,2.278-2.279h35.278a4.168,4.168,0,0,1,2.926,1.211,4.167,4.167,0,0,1,1.213,2.927v60.825l7.709,15.441a4.117,4.117,0,0,1-.407,4.344,4.356,4.356,0,0,1-3.5,1.637Zm.47-4.559h96.763l-7.019-14.038h-82.725Zm66.115-20.037a1.44,1.44,0,0,0,1.44,1.439h6.725a3.5,3.5,0,0,0,1.991-.568,3.291,3.291,0,0,0,1.446-2.732v-14.686a5.417,5.417,0,0,0-1.066-3.338,5.153,5.153,0,0,0-4.094-2.014H-805.75a5.147,5.147,0,0,0-4.094,2.016,5.435,5.435,0,0,0-1.066,3.347v17.975h6.022v-14.224a2.278,2.278,0,0,1,2.28-2.278h0a2.277,2.277,0,0,1,2.277,2.278v14.224h4.933a6.006,6.006,0,0,1,.921-4.9,6.009,6.009,0,0,1,4.468-2.526v-6.8a2.277,2.277,0,0,1,2.278-2.278,2.279,2.279,0,0,1,2.279,2.278v9.065a2.294,2.294,0,0,1-.668,1.61,2.294,2.294,0,0,1-1.612.668h-1.86A1.44,1.44,0,0,0-791.03-4156.091Zm-32.613,17.158a2.279,2.279,0,0,1-2.279-2.279,2.279,2.279,0,0,1,2.279-2.28h29.755a2.28,2.28,0,0,1,2.279,2.28,2.28,2.28,0,0,1-2.279,2.279Zm-18.671-44.411a24.413,24.413,0,0,1-14.281-15.088,24.42,24.42,0,0,1,2.506-20.625,2.452,2.452,0,0,1,1.53-1.12,2.451,2.451,0,0,1,1.87.311,2.446,2.446,0,0,1,1.085,1.554,2.447,2.447,0,0,1-.353,1.862,19.6,19.6,0,0,0-1.38,18.262,19.59,19.59,0,0,0,14.314,11.423,19.6,19.6,0,0,0,17.5-5.4,19.591,19.591,0,0,0,5.4-17.5,19.588,19.588,0,0,0-11.423-14.314,19.587,19.587,0,0,0-18.26,1.379,2.441,2.441,0,0,1-1.855.336,2.438,2.438,0,0,1-1.544-1.083,2.441,2.441,0,0,1-.311-1.861,2.436,2.436,0,0,1,1.105-1.527,24.362,24.362,0,0,1,12.992-3.765,24.424,24.424,0,0,1,18.808,8.827,24.42,24.42,0,0,1,5.2,20.114,24.41,24.41,0,0,1-12.169,16.839,24.413,24.413,0,0,1-11.826,3.054A24.416,24.416,0,0,1-842.314-4183.343Zm4.765-10.334a2.068,2.068,0,0,1-1.46-.6,2.065,2.065,0,0,1-.6-1.46v-4.129h-4.13a2.063,2.063,0,0,1-1.46-.605,2.062,2.062,0,0,1-.6-1.46v-8.259a2.064,2.064,0,0,1,2.064-2.064h4.13v-4.13a2.064,2.064,0,0,1,2.064-2.064h8.259a2.062,2.062,0,0,1,1.46.6,2.064,2.064,0,0,1,.6,1.459v4.13h4.13a2.064,2.064,0,0,1,1.46.6,2.068,2.068,0,0,1,.6,1.46v8.259a2.067,2.067,0,0,1-.6,1.46,2.065,2.065,0,0,1-1.46.605h-4.13v4.129a2.065,2.065,0,0,1-.6,1.46,2.068,2.068,0,0,1-1.46.6ZM-841.678-4204h4.129a2.061,2.061,0,0,1,1.46.605,2.061,2.061,0,0,1,.605,1.459v4.129h4.129v-4.129A2.065,2.065,0,0,1-829.29-4204h4.129v-4.129h-4.129a2.067,2.067,0,0,1-1.46-.6,2.064,2.064,0,0,1-.605-1.46v-4.129h-4.129v4.129a2.064,2.064,0,0,1-.605,1.46,2.067,2.067,0,0,1-1.46.6h-4.129Z" transform="translate(871.52 4237)" fill="#fff" stroke="rgba(0,0,0,0)" stroke-width="1"/>
    </g>
  </g>
</svg>
