<svg xmlns="http://www.w3.org/2000/svg" xmlns:xlink="http://www.w3.org/1999/xlink" width="127.342" height="115.018" viewBox="0 0 127.342 115.018">
  <defs>
    <filter id="Union_9" x="0" y="0.499" width="127.342" height="114.519" filterUnits="userSpaceOnUse">
      <feOffset dy="3" input="SourceAlpha"/>
      <feGaussianBlur stdDeviation="3" result="blur"/>
      <feFlood flood-opacity="0.161"/>
      <feComposite operator="in" in2="blur"/>
      <feComposite in="SourceGraphic"/>
    </filter>
  </defs>
  <g id="icon-抽血檢驗" transform="translate(8.5)">
    <rect id="Rectangle_143564" data-name="Rectangle 143564" width="110" height="110" fill="none"/>
    <g transform="matrix(1, 0, 0, 1, -8.5, 0)" filter="url(#Union_9)">
      <path id="Union_9-2" data-name="Union 9" d="M-15.3-4132.2a11.944,11.944,0,0,1-2-.54,11.185,11.185,0,0,1-1.476-.624l-.045-.007-.139-.05a18.079,18.079,0,0,1-2.086-1.3l.286-.4-.49-.086a.389.389,0,0,0,.071.316,1.2,1.2,0,0,0-.132-.108c-.07-.056-.143-.115-.2-.171a1.629,1.629,0,0,1-.147-.157,13.594,13.594,0,0,1-1.885-2.193l-1.891-2.738-46.32-66.7a3.131,3.131,0,0,1-1.727.515,3.181,3.181,0,0,1-.565-.05,3.159,3.159,0,0,1-2.051-1.321,3.11,3.11,0,0,1-.529-2.287,3.181,3.181,0,0,1,1.328-2.14l21.186-14.715a3.184,3.184,0,0,1,1.8-.56,3.224,3.224,0,0,1,.663.07,3.1,3.1,0,0,1,1.964,1.289,3.164,3.164,0,0,1,.519,2.388,3.148,3.148,0,0,1-1.236,1.982L-2-4152.105a12.619,12.619,0,0,1-1.858,16.736,13.92,13.92,0,0,1-7.524,3.254,12.837,12.837,0,0,1-1.673.11A12.778,12.778,0,0,1-15.3-4132.2Zm-22.946-53.02c1.114.119,2.187.185,3.224.246.9.054,1.769.107,2.561.191l-23.17-33.377-10.928,7.589.236.452L-50.3-4186.9l.05.008c2.293.413,4.732.843,7.24,1.189,1.282.179,2.579.32,3.843.455l.363.041v-.048Zm-66.255,48.094a3.5,3.5,0,0,1-3.5-3.5,3.5,3.5,0,0,1,3.5-3.5h54a3.5,3.5,0,0,1,3.5,3.5,3.5,3.5,0,0,1-3.5,3.5Zm1.5-22a3.5,3.5,0,0,1-3.5-3.5,3.5,3.5,0,0,1,3.5-3.5H-76.75a3.5,3.5,0,0,1,3.5,3.5,3.5,3.5,0,0,1-3.5,3.5Zm-4.826-35.5a10.268,10.268,0,0,1-.174-1.99,14.757,14.757,0,0,1,1.059-5.5l14.178-22.77.032-.1.015-.017.018.048,14.112,22.785h0a15.045,15.045,0,0,1,1.087,5.565,14.468,14.468,0,0,1-.38,3.237,15.294,15.294,0,0,1-14.855,12A15.209,15.209,0,0,1-107.826-4194.632Zm7.179.885h5.231v5.213h5.357v-5.213h5.216v-5.359H-90.06v-5.233h-5.357v5.233h-5.231Z" transform="translate(117.5 4234.52)" fill="#fff" stroke="rgba(0,0,0,0)" stroke-width="1"/>
    </g>
  </g>
</svg>
