<svg xmlns="http://www.w3.org/2000/svg" xmlns:xlink="http://www.w3.org/1999/xlink" width="117.998" height="117.933" viewBox="0 0 117.998 117.933">
  <defs>
    <filter id="Union_4" x="0" y="0" width="117.998" height="117.933" filterUnits="userSpaceOnUse">
      <feOffset dy="3" input="SourceAlpha"/>
      <feGaussianBlur stdDeviation="3" result="blur"/>
      <feFlood flood-opacity="0.161"/>
      <feComposite operator="in" in2="blur"/>
      <feComposite in="SourceGraphic"/>
    </filter>
  </defs>
  <g id="icon-交通指引" transform="translate(-330.713 -670.641)">
    <rect id="Rectangle_143762" data-name="Rectangle 143762" width="110" height="110" transform="translate(334.247 671.142)" fill="none"/>
    <g transform="matrix(1, 0, 0, 1, 330.71, 670.64)" filter="url(#Union_4)">
      <path id="Union_4-2" data-name="Union 4" d="M-364.665-4137.388a2.75,2.75,0,0,1,.069-2.748l20.479-33.42a2.718,2.718,0,0,1,2.288-1.283h5.609l.159.229c1.031,1.437,2.116,2.885,3.212,4.335l.669.882h-8.148l-5.472,8.926h14.185a2.723,2.723,0,0,1,2.636,2.808,2.726,2.726,0,0,1-2.636,2.635h-17.522l-8.332,13.579h39.238v-4.51a2.714,2.714,0,0,1,2.7-2.715,2.375,2.375,0,0,1,.655.088,2.7,2.7,0,0,1,1.924,1.923,2.388,2.388,0,0,1,.1.717v4.51h39.245l-8.332-13.581h-17.522a2.723,2.723,0,0,1-2.635-2.809,2.722,2.722,0,0,1,2.635-2.635h14.183l-5.469-8.942h-8.143l.673-.884c1.152-1.518,2.226-2.969,3.224-4.34l.163-.223h5.581a2.723,2.723,0,0,1,2.292,1.284l20.49,33.416a2.745,2.745,0,0,1,.069,2.749,2.686,2.686,0,0,1-2.355,1.406l-93.548.008A2.684,2.684,0,0,1-364.665-4137.388Zm49.122-19.03c-.022-.022-22.037-25.511-26.142-35.865h.04a29.753,29.753,0,0,1-2.973-12.982q-.013-.564,0-1.129a29.084,29.084,0,0,1,29.641-28.512,29.082,29.082,0,0,1,28.508,29.641,29.777,29.777,0,0,1-2.985,12.982h.041c-2.052,5.183-8.563,14.139-14.589,21.809-6.018,7.653-11.5,14.057-11.542,14.057Zm.011-24.59a23.63,23.63,0,0,0,23.406-23.854c0-.147,0-.3,0-.445a23.856,23.856,0,0,0-24.293-23.41,23.855,23.855,0,0,0-23.414,24.291,23.858,23.858,0,0,0,24.293,23.414Zm-13.295-25.14a7.713,7.713,0,0,1-.55-2.792,7.754,7.754,0,0,1,7.675-7.837c5.922.011,6.162,3.38,6.162,3.38s.239-3.386,6.161-3.386a7.881,7.881,0,0,1,2.784.552,7.764,7.764,0,0,1,4.345,10.083c-1.693,4.952-8.343,7.73-13.289,13.889C-320.495-4198.417-327.134-4201.2-328.827-4206.148Z" transform="translate(374.53 4241.41)" fill="#fff" stroke="rgba(0,0,0,0)" stroke-width="1"/>
    </g>
  </g>
</svg>
