<svg xmlns="http://www.w3.org/2000/svg" width="620.184" height="130" viewBox="0 0 620.184 130">
  <g id="logo" transform="translate(4.322 3.525)">
    <g id="Group_159164" data-name="Group 159164" transform="translate(140.298 18.592)">
      <path id="Path_11650" data-name="Path 11650" d="M101.993,13.509H98.323a1.214,1.214,0,0,1-.785-.253.989.989,0,0,1,0-1.426,1.1,1.1,0,0,1,.785-.277h8.832v-.458a1.15,1.15,0,0,1,.3-.851,1.478,1.478,0,0,1,1.847,0,1.028,1.028,0,0,1,.379.851v.458h8.706a1.1,1.1,0,0,1,.76.253.951.951,0,0,1,.3.714.982.982,0,0,1-.3.711,1,1,0,0,1-.76.277h-3.467l-.91,1.794h5.263a1.161,1.161,0,0,1,.809.252.956.956,0,0,1,.3.736.991.991,0,0,1-.3.736,1.088,1.088,0,0,1-.809.3H97.437a1.2,1.2,0,0,1-.835-.276,1.044,1.044,0,0,1,0-1.472,1.1,1.1,0,0,1,.835-.275H102.9Zm5.213,15.015h-8a1.153,1.153,0,0,1-.785-.276.941.941,0,0,1-.3-.713.892.892,0,0,1,.3-.69,1.153,1.153,0,0,1,.785-.276h8V25.7h-6.985a1.515,1.515,0,0,1-1.088-.483,1.641,1.641,0,0,1-.43-1.2v-4.53a1.236,1.236,0,0,1,.43-.989,1.489,1.489,0,0,1,1.088-.412h16.12a1.83,1.83,0,0,1,1.341.435,1.38,1.38,0,0,1,.457.966v4.53a1.6,1.6,0,0,1-.558,1.174,1.965,1.965,0,0,1-1.24.5h-6.706v.874h7.871a1.136,1.136,0,0,1,.759.253.875.875,0,0,1,.3.713,1.03,1.03,0,0,1-1.062.989h-7.871v.828h9.44a1.314,1.314,0,0,1,.861.276,1,1,0,0,1,.3.782,1.088,1.088,0,0,1-.3.759,1.228,1.228,0,0,1-.861.322H97.741a1.233,1.233,0,0,1-.885-.3,1.059,1.059,0,0,1-.3-.782,1.007,1.007,0,0,1,.3-.759,1.233,1.233,0,0,1,.885-.3h9.466Zm0-8.578h-5.644l-.3.115a.256.256,0,0,0-.126.276v.621h6.074Zm0,2.876h-6.074v.619l.126.277.3.114h5.644Zm4.023-7.52.911-1.794h-7.365l.911,1.794Zm-1.594,5.656h6.074v-.621l-.126-.252a.372.372,0,0,0-.3-.139h-5.644Zm0,2.875h5.644l.3-.114.126-.277v-.619h-6.074Z" transform="translate(-96.299 -9.833)" fill="#fff"/>
      <path id="Path_11651" data-name="Path 11651" d="M232.226,17.978H223.66a2.874,2.874,0,0,1-1.83-.572,2.127,2.127,0,0,1-.71-1.663,2.15,2.15,0,0,1,.71-1.558,2.632,2.632,0,0,1,1.83-.622h20.616V12.523a2.554,2.554,0,0,1,.709-1.923,3.326,3.326,0,0,1,2.245-.727,3.29,3.29,0,0,1,2.067.727,2.3,2.3,0,0,1,.887,1.923v1.039H270.5a2.608,2.608,0,0,1,1.772.571,2.1,2.1,0,0,1,.71,1.61,2.176,2.176,0,0,1-.71,1.611,2.387,2.387,0,0,1-1.772.624h-8.092l-2.126,4.053h12.286a2.772,2.772,0,0,1,1.89.571,2.132,2.132,0,0,1,.709,1.663,2.2,2.2,0,0,1-.709,1.663,2.582,2.582,0,0,1-1.89.676H221.593a2.851,2.851,0,0,1-1.949-.622,2.3,2.3,0,0,1,0-3.326,2.612,2.612,0,0,1,1.949-.624h12.759Zm12.168,33.93H225.729a2.744,2.744,0,0,1-1.831-.624,2.092,2.092,0,0,1-.709-1.61,1.99,1.99,0,0,1,.709-1.559,2.744,2.744,0,0,1,1.831-.624h18.666V45.517h-16.3a3.6,3.6,0,0,1-2.54-1.092,3.644,3.644,0,0,1-1-2.7V31.488a2.754,2.754,0,0,1,1-2.235,3.549,3.549,0,0,1,2.54-.934h37.628a4.376,4.376,0,0,1,3.13.986,3.069,3.069,0,0,1,1.064,2.183V41.723a3.548,3.548,0,0,1-1.3,2.65,4.659,4.659,0,0,1-2.895,1.144H250.064v1.973h18.371a2.711,2.711,0,0,1,1.771.572,1.95,1.95,0,0,1,.71,1.611,2.15,2.15,0,0,1-.71,1.558,2.307,2.307,0,0,1-1.771.676H250.064v1.87H272.1a3.13,3.13,0,0,1,2.009.624,2.208,2.208,0,0,1,.709,1.768,2.408,2.408,0,0,1-.709,1.715,2.918,2.918,0,0,1-2.009.727H222.3a2.938,2.938,0,0,1-2.067-.676,2.353,2.353,0,0,1-.709-1.766,2.239,2.239,0,0,1,.709-1.715,2.932,2.932,0,0,1,2.067-.677h22.092Zm0-19.38H231.222l-.709.259a.568.568,0,0,0-.3.624v1.4h14.177Zm0,6.494H230.217v1.4l.3.624.709.259h13.173Zm9.391-16.99,2.127-4.053h-17.19l2.127,4.053Zm-3.721,12.782h14.177v-1.4l-.3-.571a.881.881,0,0,0-.709-.312H250.064Zm0,6.5h13.173l.709-.259.3-.624v-1.4H250.064Z" transform="translate(-42.673 -9.853)" fill="#fff"/>
      <path id="Path_11652" data-name="Path 11652" d="M264.178,37.831a3.173,3.173,0,0,1-2.245-.467,2.233,2.233,0,0,1-1.123-1.558,2.338,2.338,0,0,1,.473-1.768,3.8,3.8,0,0,1,2.126-1.091h.769l4.489-5.247a40.16,40.16,0,0,0-6.321-4.78,2.951,2.951,0,0,1-1.417-1.611,1.875,1.875,0,0,1,.236-1.82,2.918,2.918,0,0,1,1.654-1.141,3.463,3.463,0,0,1,2.245.31c1.358-2.234,2.658-4.675,3.957-7.326a2.819,2.819,0,0,1,1.713-1.351,2.655,2.655,0,0,1,2.067.208,3.623,3.623,0,0,1,1.419,1.35c.236,1.144-1.477,4.47-5.079,9.978l2.361,2.027a60.944,60.944,0,0,0,3.544-6.964,2.869,2.869,0,0,1,1.478-1.611,3.262,3.262,0,0,1,2.127-.1,3.054,3.054,0,0,1,1.535,1.2,3.137,3.137,0,0,1,.177,1.506c-1.121,3.95-4.134,8.833-8.979,14.6l4.963-.571c-.828-2.027-1.123-3.273-.946-3.741a2.843,2.843,0,0,1,1.419-1.4,3.986,3.986,0,0,1,2.067-.052,2.769,2.769,0,0,1,1.6,1.455l1.594,3.95c1.417,3.273,1.831,5.351,1.24,6.131a2.466,2.466,0,0,1-1.653,1.143,3.924,3.924,0,0,1-2.068-.26,3.812,3.812,0,0,1-1.476-2.545l-3.132.415V57.368a2.533,2.533,0,0,1-.826,1.975,3.228,3.228,0,0,1-2.009.78,3.354,3.354,0,0,1-2.067-.729,2.75,2.75,0,0,1-.768-2.027V37.26Zm-.71,2.6a2.905,2.905,0,0,1,1.772-.676,3.213,3.213,0,0,1,1.772.624A2.393,2.393,0,0,1,267.6,42.2v.469c-.885,8.26-1.89,12.73-2.775,13.3a2.739,2.739,0,0,1-1.89.31,2.975,2.975,0,0,1-1.536-.882,2.163,2.163,0,0,1-.3-1.923,49,49,0,0,0,1.6-11.329,2.424,2.424,0,0,1,.768-1.713m19.08,10.133a2.274,2.274,0,0,1-.473,1.765,2.213,2.213,0,0,1-1.594.78,2.751,2.751,0,0,1-1.713-.365,2.2,2.2,0,0,1-1-1.61L276.4,42.2a2.462,2.462,0,0,1,.355-1.663,2.638,2.638,0,0,1,1.594-.884,2.95,2.95,0,0,1,1.831.365,2.42,2.42,0,0,1,1,1.611Zm13.408-38.035a2.388,2.388,0,0,1,.768-1.923,3.064,3.064,0,0,1,2.186-.727,3.29,3.29,0,0,1,2.067.727,2.148,2.148,0,0,1,.887,1.923V14.4h10.219a6.1,6.1,0,0,1,2.718.624,5.1,5.1,0,0,1,1.654,1.87c.768,1.715.709,4.053-.06,6.91a3.01,3.01,0,0,1-1.535,1.766,3.651,3.651,0,0,1-2.127.157C310.9,25.1,310.31,23.958,310.9,22.3a4.613,4.613,0,0,0,.295-2.13,1.475,1.475,0,0,0-1.594-.936H289.163a1.8,1.8,0,0,0-1.417.467,1.244,1.244,0,0,0-.532,1.2v2.39a2.455,2.455,0,0,1-.828,2.025,3.307,3.307,0,0,1-2.008.729,3.246,3.246,0,0,1-2.067-.779,2.805,2.805,0,0,1-.769-1.975V18.918A3.978,3.978,0,0,1,283.02,15.7a4.943,4.943,0,0,1,3.662-1.3h9.273ZM289.7,38.455a2.972,2.972,0,0,1,2.245-.208,2.714,2.714,0,0,1,1.772,1.2,2.345,2.345,0,0,1,.236,2.13,58.785,58.785,0,0,1-5.672,12.054,3.375,3.375,0,0,1-1.713,1.456,3.214,3.214,0,0,1-2.3-.208,2.247,2.247,0,0,1-1.477-1.455,2.794,2.794,0,0,1,.414-2.183,56.407,56.407,0,0,0,5.14-11.015,3.475,3.475,0,0,1,1.358-1.766m-3.485-2.494a3.016,3.016,0,0,1-2.127-.727,2.173,2.173,0,0,1-.768-1.82,2.424,2.424,0,0,1,.768-1.765,3.01,3.01,0,0,1,2.127-.729h27.466a3.031,3.031,0,0,1,2.068.676,2.312,2.312,0,0,1,.769,1.818,2.279,2.279,0,0,1-.769,1.768,2.868,2.868,0,0,1-2.068.779H303.162V53.575a5.958,5.958,0,0,1-3.013,5.144c-1,.572-3.13.78-5.966.624-2.775-.208-4.606-.831-5.256-1.87a2.3,2.3,0,0,1-.237-1.871c.65-1.611,1.95-2.182,3.781-1.663,2.42.365,3.9.365,4.371.052a1.928,1.928,0,0,0,.591-1.663V35.961Zm21.678-12.833a2.957,2.957,0,0,1,1.949.622,2.133,2.133,0,0,1,.767,1.766,2.169,2.169,0,0,1-.767,1.715,2.759,2.759,0,0,1-1.949.727H290.582a2.787,2.787,0,0,1-2.009-.674,2.136,2.136,0,0,1-.768-1.768,2.169,2.169,0,0,1,.768-1.715,2.787,2.787,0,0,1,2.009-.674Zm-1.654,16.678a2.321,2.321,0,0,1,1.36-1.4,3.429,3.429,0,0,1,2.126-.208,3.282,3.282,0,0,1,1.772,1.559l2.422,5.456c1.064,2.545,1.949,4.832,2.6,6.91a2.74,2.74,0,0,1-.237,2.078,2.94,2.94,0,0,1-1.772,1.144,3.333,3.333,0,0,1-2.127-.208,2.631,2.631,0,0,1-1.358-1.768,112.854,112.854,0,0,0-4.548-11.482,2.216,2.216,0,0,1-.237-2.078" transform="translate(-24.372 -9.859)" fill="#fff"/>
      <path id="Path_11653" data-name="Path 11653" d="M308.035,29.623a3.8,3.8,0,0,1-2.836-.052,3.549,3.549,0,0,1-1.772-1.715,2.736,2.736,0,0,1-.059-2.442,3.43,3.43,0,0,1,2.068-1.611A75.631,75.631,0,0,0,328.9,11.056a4.616,4.616,0,0,1,3.073-1.2,4.5,4.5,0,0,1,2.834.884,69.726,69.726,0,0,0,22.848,12.644,3.375,3.375,0,0,1,2.009,1.661,2.825,2.825,0,0,1,0,2.39,3.226,3.226,0,0,1-1.831,1.768,3.657,3.657,0,0,1-2.777,0l-4.667-1.82a2.591,2.591,0,0,1-.767,2.494,3.017,3.017,0,0,1-2.245.832l-31,.207a3.412,3.412,0,0,1-2.363-.779,3.6,3.6,0,0,1-.767-2.547Zm6.2,28.37a5.241,5.241,0,0,1-3.485-1.2,3.735,3.735,0,0,1-1.476-3.014V39.65a4.032,4.032,0,0,1,1.535-3.117,4.369,4.369,0,0,1,3.426-1.248h34.969a4.334,4.334,0,0,1,3.484,1.4,4.617,4.617,0,0,1,1.242,2.962V53.783a3.959,3.959,0,0,1-1.242,2.909,5.508,5.508,0,0,1-3.484,1.3Zm3.248-17.459A1.918,1.918,0,0,0,315.95,41a1.8,1.8,0,0,0-.532,1.351v8.418a2.05,2.05,0,0,0,.532,1.455,2.2,2.2,0,0,0,1.535.519H345.6a2.972,2.972,0,0,0,1.594-.519,1.8,1.8,0,0,0,.592-1.455V42.352a1.606,1.606,0,0,0-.65-1.3,2.159,2.159,0,0,0-1.536-.519ZM345.9,25.258l-2.6-1.351c-3.769-2.36-6.515-4.78-9.615-7.031a3.037,3.037,0,0,0-1.713-.624,2.643,2.643,0,0,0-1.772.727,76.848,76.848,0,0,1-12.358,8.279Z" transform="translate(-5.867 -9.859)" fill="#fff"/>
      <path id="Path_11654" data-name="Path 11654" d="M393.321,40.035a4.054,4.054,0,0,1,2.952.936,2.752,2.752,0,0,1,1.064,2.078V55.156a3.058,3.058,0,0,1-1.3,2.442,3.651,3.651,0,0,1-2.716,1.039H353.214a3.107,3.107,0,0,1-2.363-.987,3.266,3.266,0,0,1-1-2.494V43.049a2.3,2.3,0,0,1,1-2.078,3.163,3.163,0,0,1,2.363-.936h11.872V38.372h-17.42a2.524,2.524,0,0,1-1.83-.624,2.118,2.118,0,0,1-.592-1.506,2.317,2.317,0,0,1,.592-1.506,2.763,2.763,0,0,1,1.83-.572h51.643a2.891,2.891,0,0,1,1.772.52,2.164,2.164,0,0,1,.592,1.558,2.2,2.2,0,0,1-.592,1.456,2.224,2.224,0,0,1-1.772.674H382.571v1.663Zm-34.97-11.119c-1.593.519-2.716.572-3.306.155a2.043,2.043,0,0,1-.946-1.194,2,2,0,0,1,.3-1.455,2.547,2.547,0,0,1,1.713-.78l3.484-1.4h-4.726a1.882,1.882,0,0,1-1.3-.415,1.548,1.548,0,0,1-.532-1.194,1.279,1.279,0,0,1,.532-1.092,1.684,1.684,0,0,1,1.3-.467h6.2V19.2H357.7c-1.181,1.089-2.067,1.611-2.656,1.611a1.843,1.843,0,0,1-1.477-.572,1.887,1.887,0,0,1-.65-1.248,2.286,2.286,0,0,1,.885-1.506,16.771,16.771,0,0,0,2.245-2.859h-2.009a1.743,1.743,0,0,0-1,.312,1.142,1.142,0,0,0-.354.884V28.085a1.628,1.628,0,0,0,.471,1.3,2.553,2.553,0,0,0,1.36.312H370.58a2.332,2.332,0,0,1,1.475.469,1.308,1.308,0,0,1,.592,1.194,1.544,1.544,0,0,1-.532,1.194,2.252,2.252,0,0,1-1.535.52H352.15a4.417,4.417,0,0,1-3.132-1.039,3.831,3.831,0,0,1-1.121-2.7V14.47a3.194,3.194,0,0,1,1-2.44,3.679,3.679,0,0,1,2.657-.832h19.258a2.333,2.333,0,0,1,1.476.469,1.457,1.457,0,0,1,.591,1.246,1.716,1.716,0,0,1-.532,1.2,2.265,2.265,0,0,1-1.535.519H360.538l-.65,1.351h9.272a1.984,1.984,0,0,1,1.3.415,1.511,1.511,0,0,1,.532,1.144,1.435,1.435,0,0,1-.532,1.143,1.609,1.609,0,0,1-1.3.52h-3.78v1.87h5.85a2,2,0,0,1,1.3.415,1.375,1.375,0,0,1,.532,1.144,1.444,1.444,0,0,1-.532,1.143,1.768,1.768,0,0,1-1.3.467h-4.312c2.774,1.144,4.312,2.13,4.548,2.962a1.611,1.611,0,0,1-.3,1.351,2.757,2.757,0,0,1-1.36.831,2.234,2.234,0,0,1-1.71-.467l-4.845-2.754a22.968,22.968,0,0,1-4.9,2.754m18.726,14.912H370.4l-.532,1.663c-1.713,2.5-5.493,4.49-11.106,5.01a3.517,3.517,0,0,1-1.949-.624,2.025,2.025,0,0,1-.707-1.559c.118-1.4,1-2.13,2.716-2.13,3.248-.26,5.256-1.321,5.848-2.36h-8.389l-.707.262a.623.623,0,0,0-.239.622V50.79h36.505V49.453H381.151a4.314,4.314,0,0,1-2.834-1.039,4.786,4.786,0,0,1-1.24-3.235ZM355.338,53.8v.262l.3.519a.9.9,0,0,0,.65.26H390.9l.65-.26.295-.519V53.8Zm21.739-15.432h-6.5v1.663h6.5Zm5.02-22.291v-.364a3.538,3.538,0,0,1-1.417,2.547,14.209,14.209,0,0,1-4.844,2.182,3.416,3.416,0,0,1-2.068-.157,2.36,2.36,0,0,1-1.064-1.506c-.118-1.4.651-2.235,2.245-2.545a4.778,4.778,0,0,0,1.95-.936,1.378,1.378,0,0,0,.65-1.039v.052a3.7,3.7,0,0,1,1-2.442,4.37,4.37,0,0,1,3.191-.987H388.3a4.233,4.233,0,0,1,3.13,1.091,3.744,3.744,0,0,1,1.3,2.807v.208l.175.362.474.208h2.42l.471-.208.239-.415a2.3,2.3,0,0,1,.65-1.663,2.481,2.481,0,0,1,1.535-.415,2.04,2.04,0,0,1,1.535.469,1.908,1.908,0,0,1,.65,1.61v.987a3.294,3.294,0,0,1-.532,1.923,3.48,3.48,0,0,1-1.476,1.351,5.109,5.109,0,0,1-2.126.364h-4.9a3.6,3.6,0,0,1-3.189-1.611,2.57,2.57,0,0,1-.471-1.663v-.259c-.06-.78-.473-1.144-1.36-1.092H383.4c-.885,0-1.357.364-1.3,1.143m-5.079,8.263a2.241,2.241,0,0,1-1.6-.572,1.731,1.731,0,0,1-.591-1.351,1.659,1.659,0,0,1,.591-1.351,2.218,2.218,0,0,1,1.6-.52H394.68a3.536,3.536,0,0,1,2.481.364,2.434,2.434,0,0,1,1,1.768c.118,1.4-1.713,3.428-5.258,5.923l-.295.207a55.276,55.276,0,0,0,6.343.832,3.216,3.216,0,0,1,2.008.727,2.022,2.022,0,0,1,.473,1.558,2.161,2.161,0,0,1-.767,1.4c-1.6,1.039-6.166.415-12.9-1.922l-4.608,1.506c-4.9,1.039-7.856,1.194-8.8.364a2.336,2.336,0,0,1-.71-1.455,1.778,1.778,0,0,1,.591-1.559,2.913,2.913,0,0,1,1.772-.624,31.707,31.707,0,0,0,6.144-.727l-3.544-2.078a2.411,2.411,0,0,1-1.064-1.4l.177-1.091Zm10.4,2.857,1-.52,2.244-1.3v-.624c-.057-.26-.471-.415-1.121-.415h-7.208a35.467,35.467,0,0,0,5.081,2.857m4.43,18.758V44.712l-.295-.572-.65-.312h-8.328v.312a1.962,1.962,0,0,0,.354,1.456,2.118,2.118,0,0,0,1.239.364Z" transform="translate(12.558 -9.413)" fill="#fff"/>
      <path id="Path_11655" data-name="Path 11655" d="M394.76,57.155a2.71,2.71,0,0,1-.885,2.13,3.53,3.53,0,0,1-2.127.727,3.244,3.244,0,0,1-2.067-.779,2.607,2.607,0,0,1-.887-2.078V15.587a3.152,3.152,0,0,1,1.242-2.7,3.821,3.821,0,0,1,2.893-.936h6.557a4.287,4.287,0,0,1,3.309.779,3.842,3.842,0,0,1,1.594,2.078,3.187,3.187,0,0,1-.177,2.08l-2.481,9.508v.1a4.888,4.888,0,0,0,.709,4.157,18.2,18.2,0,0,1,3.248,7.639c.71,3.845,0,6.7-2.185,8.468-1.831,1.559-4.785,2.027-8.743,1.351Zm.592-39.8a1.6,1.6,0,0,0-.592,1.4V42.244a9.924,9.924,0,0,0,3.073.882,2.163,2.163,0,0,0,1.357-.312c1.832-1.975,1.3-5.4-1.475-10.131-1.713-2.183-2.245-4.106-1.656-5.664l2.305-8.47c.471-1.144.058-1.766-1.36-1.766a1.856,1.856,0,0,0-1.653.572m34.643,40.954a6.347,6.347,0,0,1-2.415-1.295c-1.993-1.63-2.341-4.234-2.341-6.642V37.981h-5.551v2.755l-.532,3.845A21.908,21.908,0,0,1,407.7,58.195c-2.481,1.143-4.312,1.508-5.316,1.091a3.023,3.023,0,0,1-1.831-1.559,3.617,3.617,0,0,1-.059-2.234,3.724,3.724,0,0,1,2.245-1.663,19.272,19.272,0,0,0,4.134-1.975c4.55-2.752,6.853-6.494,6.853-11.119V37.981h-5.14a3.117,3.117,0,0,1-2.126-.726,2.172,2.172,0,0,1-.769-1.82,2.436,2.436,0,0,1,.769-1.766,3.118,3.118,0,0,1,2.126-.727H438.59a2.938,2.938,0,0,1,2.067.676,2.308,2.308,0,0,1,.769,1.818,2.466,2.466,0,0,1-.769,1.82,2.962,2.962,0,0,1-2.067.726h-7.383V50.639a4.577,4.577,0,0,0,.2,1.847,2.7,2.7,0,0,0,2.729,1.258c.655-.014,2.261.241,3.119-.757.612-.711.332-3.414.332-4.56a3.257,3.257,0,0,1,.828-2.13,3.734,3.734,0,0,1,2.126-.727,4.046,4.046,0,0,1,2.127.676,3.06,3.06,0,0,1,.826,2.13c-.295,4.78-.456,6.675-1.572,8.109-1.93,2.482-6.843,2.327-9.735,2.143a10.765,10.765,0,0,1-2.2-.318M420.16,12.522a2.387,2.387,0,0,1,.77-1.923,3.27,3.27,0,0,1,2.185-.727,3.063,3.063,0,0,1,2.067.727,2.2,2.2,0,0,1,.946,1.923v1.663H437.29a6.031,6.031,0,0,1,2.659.622,5.085,5.085,0,0,1,1.653,1.871c1.064,2.234,1,5.4-.177,9.612a3.061,3.061,0,0,1-1.594,1.818,4.016,4.016,0,0,1-2.245.155c-1.831-.571-2.481-1.818-1.891-3.585.71-2.338.946-3.9.65-4.729a1.444,1.444,0,0,0-1.535-.936H412.6a1.855,1.855,0,0,0-1.419.52,1.3,1.3,0,0,0-.532,1.194v4.78a2.973,2.973,0,0,1-.825,2.131,3.675,3.675,0,0,1-2.127.727,3.42,3.42,0,0,1-2.127-.78,2.846,2.846,0,0,1-.826-2.078v-6.7a4.145,4.145,0,0,1,1.476-3.274,5.134,5.134,0,0,1,3.78-1.35h10.16Zm11.991,10.91a3.042,3.042,0,0,1,2.07.676,2.135,2.135,0,0,1,.707,1.818,2.367,2.367,0,0,1-.707,1.768,2.871,2.871,0,0,1-2.07.779H414.136a3.119,3.119,0,0,1-2.127-.727,2.308,2.308,0,0,1-.768-1.82,2.272,2.272,0,0,1,.768-1.765,3.112,3.112,0,0,1,2.127-.729Z" transform="translate(31.601 -9.854)" fill="#fff"/>
      <path id="Path_11656" data-name="Path 11656" d="M116.781,42.494a1.707,1.707,0,0,1,1.266.412,1.241,1.241,0,0,1,.456.921v5.358a1.365,1.365,0,0,1-.556,1.079,1.54,1.54,0,0,1-1.166.461H99.6a1.319,1.319,0,0,1-1.012-.437,1.466,1.466,0,0,1-.431-1.1V43.827a1.032,1.032,0,0,1,.431-.921,1.334,1.334,0,0,1,1.012-.412h5.087v-.736H97.547a1.071,1.071,0,0,1-.785-.276.963.963,0,0,1-.252-.667,1.051,1.051,0,0,1,.252-.667,1.168,1.168,0,0,1,.785-.253h21.638a1.211,1.211,0,0,1,.759.23.975.975,0,0,1,.253.69.989.989,0,0,1-.253.644.936.936,0,0,1-.759.3h-7.01v.736ZM101.8,37.572c-.684.23-1.164.253-1.417.069a.9.9,0,0,1-.405-.529.911.911,0,0,1,.126-.644,1.078,1.078,0,0,1,.733-.345l1.493-.621h-2.024a.79.79,0,0,1-.558-.184.7.7,0,0,1-.227-.529.573.573,0,0,1,.227-.483.706.706,0,0,1,.558-.207h2.658v-.828h-1.443c-.506.483-.885.713-1.138.713a.773.773,0,0,1-.634-.253.846.846,0,0,1-.277-.552,1.021,1.021,0,0,1,.379-.667,7.438,7.438,0,0,0,.962-1.265h-.861a.732.732,0,0,0-.43.138.514.514,0,0,0-.151.391V37.2a.737.737,0,0,0,.2.575,1.07,1.07,0,0,0,.582.138h6.883a.985.985,0,0,1,.634.207.587.587,0,0,1,.253.529.693.693,0,0,1-.229.529.948.948,0,0,1-.658.23H99.143a1.852,1.852,0,0,1-1.341-.46,1.72,1.72,0,0,1-.481-1.2V31.179a1.439,1.439,0,0,1,.431-1.081,1.541,1.541,0,0,1,1.138-.368h8.25a.981.981,0,0,1,.632.207.655.655,0,0,1,.253.552.773.773,0,0,1-.227.529.948.948,0,0,1-.658.23h-4.4l-.279.6h3.974a.832.832,0,0,1,.556.184.68.68,0,0,1,.229.506.646.646,0,0,1-.229.506.677.677,0,0,1-.556.23h-1.62V34.1h2.505a.832.832,0,0,1,.556.184.614.614,0,0,1,.229.506.646.646,0,0,1-.229.506.741.741,0,0,1-.556.207H105.47c1.19.506,1.847.943,1.947,1.311a.729.729,0,0,1-.126.6,1.168,1.168,0,0,1-.581.368.938.938,0,0,1-.734-.207L103.9,36.354a9.73,9.73,0,0,1-2.1,1.219m8.021,6.6h-2.859l-.229.736c-.733,1.1-2.353,1.818-4.757,2.047a1.454,1.454,0,0,1-.835-.275.91.91,0,0,1-.3-.69c.05-.621.431-.943,1.166-.943,1.391-.115,2.252-.414,2.505-.875h-3.595l-.3.116a.278.278,0,0,0-.1.276v2.505h15.639v-.69h-4.581a1.81,1.81,0,0,1-1.215-.458,1.52,1.52,0,0,1-.532-1.15ZM100.509,48.4v.3l.126.231a.38.38,0,0,0,.277.115h14.831l.277-.115.126-.231v-.3Zm9.312-6.646h-2.784v.736h2.784Zm2.152-9.865v-.161a1.581,1.581,0,0,1-.608,1.127,6,6,0,0,1-2.074.966,1.424,1.424,0,0,1-.887-.069,1.043,1.043,0,0,1-.456-.667c-.05-.621.279-.989.962-1.127a2.012,2.012,0,0,0,.835-.414.612.612,0,0,0,.279-.46v.023a1.664,1.664,0,0,1,.43-1.081,1.835,1.835,0,0,1,1.367-.437h2.808a1.778,1.778,0,0,1,1.342.483,1.669,1.669,0,0,1,.556,1.242v.092l.076.161.2.092h1.038l.2-.092.1-.184a.815.815,0,0,1,.937-.92.841.841,0,0,1,.936.92v.437a1.5,1.5,0,0,1-.227.851,1.517,1.517,0,0,1-.634.6,2.11,2.11,0,0,1-.91.161h-2.1a1.524,1.524,0,0,1-1.365-.713,1.162,1.162,0,0,1-.2-.736v-.115c-.024-.345-.2-.506-.581-.483h-1.469c-.379,0-.582.161-.556.506M109.8,35.549a.942.942,0,0,1-.683-.253.776.776,0,0,1-.253-.6.744.744,0,0,1,.253-.6.931.931,0,0,1,.683-.23h7.567a1.472,1.472,0,0,1,1.064.161,1.084,1.084,0,0,1,.43.782c.052.621-.733,1.518-2.252,2.622l-.126.092a20.4,20.4,0,0,0,2.557.368,1.353,1.353,0,0,1,.859.322.917.917,0,0,1,.2.69.966.966,0,0,1-.329.621c-.683.46-2.479.184-5.365-.851l-1.973.667c-2.1.46-3.366.529-3.771.161a1.049,1.049,0,0,1-.3-.644.8.8,0,0,1,.253-.69,1.221,1.221,0,0,1,.759-.276A13.145,13.145,0,0,0,112,37.572l-1.518-.92a1.067,1.067,0,0,1-.456-.621l.076-.483Zm4.456,1.265.43-.23.962-.575v-.276c-.024-.115-.2-.184-.481-.184h-3.087a15.066,15.066,0,0,0,2.177,1.265m1.9,8.141v-.391l-.126-.253-.277-.139h-3.569v.139a.521.521,0,0,0,.152.483.9.9,0,0,0,.53.161Z" transform="translate(-96.206 -1.232)" fill="#fff"/>
      <path id="Path_11657" data-name="Path 11657" d="M125.556,46.207a1.271,1.271,0,0,1-1.012-.437,1.54,1.54,0,0,1-.431-1.15V40.55a2.213,2.213,0,0,1-1.57,0l-.328-.253v.069a16.57,16.57,0,0,1-1.746,7.612c-1.089,2-2,3.059-2.734,3.1a1.419,1.419,0,0,1-.861-.276c-.556-.46-.582-1.012-.05-1.656a14.4,14.4,0,0,0,2.91-7.336l-1.24.966a1.235,1.235,0,0,1-.911.253,1.121,1.121,0,0,1-.809-.46,1.072,1.072,0,0,1-.253-.8,1,1,0,0,1,.48-.759,17.359,17.359,0,0,0,2.76-2.346l.1-.092v-6.14a1.768,1.768,0,0,1,.456-1.311,2.031,2.031,0,0,1,1.544-.506h6.706v-.3a1.058,1.058,0,0,1,.3-.851,1.372,1.372,0,0,1,.936-.322,1.4,1.4,0,0,1,.911.322,1.03,1.03,0,0,1,.379.851v.3h8.4a1.521,1.521,0,0,1,.885.253.917.917,0,0,1,.329.713.843.843,0,0,1-.329.736,1.644,1.644,0,0,1-.885.253h-7.415v.069l-.1.851h7.238a1.083,1.083,0,0,1,.684.207.876.876,0,0,1,.277.667.889.889,0,0,1-.277.621.91.91,0,0,1-.684.276h-6.4l1.317,1.2.2-.069a15.163,15.163,0,0,0,2.808-.874,1.482,1.482,0,0,1,.885-.069.918.918,0,0,1,.558.483.737.737,0,0,1,.076.713c-.127.3-.835.69-2.075,1.127a12,12,0,0,0,3.061.621,1.462,1.462,0,0,1,.911.46,1.079,1.079,0,0,1,.2.782.991.991,0,0,1-.48.69,3.318,3.318,0,0,1-2.077,0v4.3a1.421,1.421,0,0,1-.53,1.127,1.9,1.9,0,0,1-1.19.46h-4.352V48.76a2.489,2.489,0,0,1-2.278,2.553c-2.1-.069-3.314-.414-3.643-.943a1.224,1.224,0,0,1-.076-.851,1.083,1.083,0,0,1,.607-.644,1.453,1.453,0,0,1,1.039-.046l1.289.207a.431.431,0,0,0,.355-.092.9.9,0,0,0,.279-.759V46.207Zm-8.934-14.787a1.124,1.124,0,0,1,.634-.506,1.155,1.155,0,0,1,.835.023,1.217,1.217,0,0,1,.607.713l.152.6q.91,3.415.53,4a1.093,1.093,0,0,1-.733.368,1.311,1.311,0,0,1-.811-.161,1.16,1.16,0,0,1-.454-.8,16.871,16.871,0,0,0-.785-3.357,1.046,1.046,0,0,1,.024-.874m9.44,15.086a1.249,1.249,0,0,1,.809.345,1.038,1.038,0,0,1,.3.759,1.075,1.075,0,0,1-.482.8,13.54,13.54,0,0,1-5.01,2.507,1.369,1.369,0,0,1-.987-.069.993.993,0,0,1-.556-.644,1.241,1.241,0,0,1,.075-.8,1.259,1.259,0,0,1,.887-.529,11.117,11.117,0,0,0,4.023-2.024,1.29,1.29,0,0,1,.937-.345m1.038-9.658a6.292,6.292,0,0,0,1.72-1.587h-5.239a1.007,1.007,0,0,1-.709-.253.861.861,0,0,1-.277-.644.9.9,0,0,1,.277-.644,1.115,1.115,0,0,1,.709-.23h6.074l.076-.851V32.57h-6.959a.526.526,0,0,0-.43.115.665.665,0,0,0-.126.391v5.933a1.241,1.241,0,0,1,.809-.414l2.075-.69-1.164-.6a.967.967,0,0,1-.632-.552.787.787,0,0,1,.024-.713.93.93,0,0,1,.558-.529,1.5,1.5,0,0,1,.885.069,13.74,13.74,0,0,1,2.328,1.265m8.782,4.714v-.713l-.128-.253-.277-.138h-8.629l-.279.115a.278.278,0,0,0-.1.276v.713Zm-9.414,1.771v.736l.1.253a.38.38,0,0,0,.279.115h8.629l.277-.115.128-.253v-.736Zm7.49-4.645a16.978,16.978,0,0,1-3.037-2.645,15.159,15.159,0,0,1-2.732,2.645Zm.152,9.291a1.112,1.112,0,0,1,.128-.874,1.151,1.151,0,0,1,.733-.552,1.362,1.362,0,0,1,1.012.138,23.253,23.253,0,0,1,4.024,2.505,1.5,1.5,0,0,1,.506.806,1.235,1.235,0,0,1-.3.851,1.2,1.2,0,0,1-.835.414,1.775,1.775,0,0,1-1.012-.368,22.918,22.918,0,0,0-3.494-2.231,1.424,1.424,0,0,1-.759-.69" transform="translate(-87.491 -1.427)" fill="#fff"/>
      <path id="Path_11658" data-name="Path 11658" d="M138.472,44.414a1.186,1.186,0,0,1-.885.207,1.164,1.164,0,0,1-.835-.6,1.362,1.362,0,0,1,.657-1.794c1.216-.8,2.3-1.587,3.24-2.323,2.252-1.886,3.569-3.449,3.9-4.668a.242.242,0,0,0-.076-.253l-.328-.092h-5.594a1.282,1.282,0,0,1-.936-.345,1.142,1.142,0,0,1-.355-.828,1.124,1.124,0,0,1,.355-.851,1.353,1.353,0,0,1,.936-.276h2.808V30.318a1.156,1.156,0,0,1,.3-.852,1.372,1.372,0,0,1,.936-.322,1.4,1.4,0,0,1,.911.322,1.033,1.033,0,0,1,.379.852v2.275h1.873a1.849,1.849,0,0,1,1.519.667,1.543,1.543,0,0,1,.1,1.633,18.029,18.029,0,0,1-3.593,5.358v9.727a1.172,1.172,0,0,1-.379.92,1.423,1.423,0,0,1-.885.345,1.556,1.556,0,0,1-.937-.322,1.4,1.4,0,0,1-.329-.943V42.5c-.936.69-1.873,1.357-2.784,1.909m5.821-3.587a1.034,1.034,0,0,1,.253-.851,1.344,1.344,0,0,1,.809-.46,1.505,1.505,0,0,1,1.039.322l1.923,1.587c1.062.9,1.594,1.61,1.568,2.024a1.081,1.081,0,0,1-.43.782,1.534,1.534,0,0,1-.911.3,1.411,1.411,0,0,1-.936-.483,30.957,30.957,0,0,0-2.758-2.415,1.268,1.268,0,0,1-.558-.8M152.67,35.7h-3.543a1.478,1.478,0,0,1-.936-.3,1.122,1.122,0,0,1-.355-.851,1.147,1.147,0,0,1,.355-.828,1.372,1.372,0,0,1,.936-.322h3.543v-2.99a1.2,1.2,0,0,1,.355-.9,1.311,1.311,0,0,1,.962-.322,1.4,1.4,0,0,1,.911.322,1.073,1.073,0,0,1,.405.9V33.4h3.618a1.4,1.4,0,0,1,.911.276,1.169,1.169,0,0,1,0,1.679,1.217,1.217,0,0,1-.911.345H155.3V48.116h4.4a1.257,1.257,0,0,1,.911.3,1.127,1.127,0,0,1,.355.851,1.062,1.062,0,0,1-.355.8,1.124,1.124,0,0,1-.911.368H147.836a1.373,1.373,0,0,1-.936-.322,1.205,1.205,0,0,1,0-1.656,1.283,1.283,0,0,1,.936-.345h4.834Z" transform="translate(-78.667 -1.427)" fill="#fff"/>
      <path id="Path_11659" data-name="Path 11659" d="M159.78,50.4a2.489,2.489,0,0,1-1.569-.6,1.821,1.821,0,0,1-.683-1.45V31.726a1.834,1.834,0,0,1,.658-1.472,2.334,2.334,0,0,1,1.594-.6h17.841a2.121,2.121,0,0,1,1.67.667,2.093,2.093,0,0,1,.556,1.4V48.351a2.034,2.034,0,0,1-.631,1.4,2.327,2.327,0,0,1-1.6.642Zm4.226-5.081H161.4a1.041,1.041,0,0,1-.759-.276.838.838,0,0,1-.279-.667.9.9,0,0,1,.279-.644,1.041,1.041,0,0,1,.759-.276h10.805v-.92l-10.376.345a1.115,1.115,0,0,1-.811-.207.939.939,0,0,1-.1-1.38,1.371,1.371,0,0,1,.835-.276l5.821-.184v-.6h-4.834a1.4,1.4,0,0,1-1.391-1.495V35.7a1.135,1.135,0,0,1,.379-.9,1.3,1.3,0,0,1,1.012-.391h4.834v-.46H161.4a1,1,0,0,1-.709-.253.823.823,0,0,1-.279-.644.9.9,0,0,1,.279-.644,1.109,1.109,0,0,1,.709-.23h6.175v-.575h-6.68a.682.682,0,0,0-.634.276.784.784,0,0,0-.277.552V47.661a.746.746,0,0,0,.253.553.867.867,0,0,0,.658.23h10.045a3.628,3.628,0,0,1-1.922-.736,1.1,1.1,0,0,1-.1-.851,1.068,1.068,0,0,1,.532-.713,1.32,1.32,0,0,1,1.038-.069,3.484,3.484,0,0,0,1.391.092.554.554,0,0,0,.329-.575v-.276h-6.175c1.064.851,1.594,1.518,1.568,2a.955.955,0,0,1-.454.665,1,1,0,0,1-.785.207,1.22,1.22,0,0,1-.785-.435,8.156,8.156,0,0,0-1.215-1.15,1.208,1.208,0,0,1-.506-.736.768.768,0,0,1,.151-.552m3.569-9.291h-3.493l-.3.092-.1.253v.391h3.9Zm0,1.978h-3.9v.276l.128.253a.374.374,0,0,0,.277.115h3.493Zm6.985,8.095a2.514,2.514,0,0,1-.405,1.242,2.986,2.986,0,0,1-1.8,1.1h4.2a1.019,1.019,0,0,0,.634-.254,1.118,1.118,0,0,0,.2-.529V32.439a.833.833,0,0,0-.227-.575.889.889,0,0,0-.608-.253H169.9v.575h5.946a1.08,1.08,0,0,1,.684.207.877.877,0,0,1,.279.667.85.85,0,0,1-.279.621.907.907,0,0,1-.684.276H169.9v.46h4.378a1.7,1.7,0,0,1,1.215.391,1.181,1.181,0,0,1,.456.9V38.74a1.279,1.279,0,0,1-.405.92c1.292,1.357,1.873,2.323,1.722,2.852a.9.9,0,0,1-.506.573,1.057,1.057,0,0,1-.785.093,1.769,1.769,0,0,1-.835-.69h-.582v.966h1.493a1.068,1.068,0,0,1,.733.253.843.843,0,0,1,.279.667.863.863,0,0,1-.279.644.916.916,0,0,1-.733.3h-1.493ZM169.9,36.762h3.7v-.391l-.1-.23-.279-.115H169.9Zm0,1.886h3.314l.279-.115.1-.253V38h-3.7Zm3.619,1.587H169.9v.529l3.872-.138Z" transform="translate(-69.526 -1.203)" fill="#fff"/>
      <path id="Path_11660" data-name="Path 11660" d="M182.083,41.464a1.366,1.366,0,0,1,.962-.115,1.541,1.541,0,0,1,.809.552,1.512,1.512,0,0,1,.05,1.013,21.342,21.342,0,0,1-2.05,4.483c-1.391,2.346-2.557,3.541-3.392,3.587a1.8,1.8,0,0,1-.936-.322,1.1,1.1,0,0,1,.026-1.794,15.539,15.539,0,0,0,3.9-6.623,1.305,1.305,0,0,1,.634-.782m-4.456-4.184a1.258,1.258,0,0,1,.887-1.5,1.5,1.5,0,0,1,1.064.138,18.458,18.458,0,0,1,3.314,2.07,1.229,1.229,0,0,1,.556.851,1.1,1.1,0,0,1-.329.874,1.194,1.194,0,0,1-.859.437,1.5,1.5,0,0,1-1.038-.391,18.16,18.16,0,0,0-2.81-1.771,1.5,1.5,0,0,1-.785-.711m.785-6.118a.955.955,0,0,1,.2-.872,1.063,1.063,0,0,1,.783-.553,1.6,1.6,0,0,1,1.038.207,21.54,21.54,0,0,1,3.24,2.369,1.422,1.422,0,0,1,.456.875,1.163,1.163,0,0,1-.379.849,1.2,1.2,0,0,1-.885.368,1.674,1.674,0,0,1-1.039-.46,18.324,18.324,0,0,0-2.732-2.022,1.275,1.275,0,0,1-.684-.76m5.568,19.547a1.879,1.879,0,0,1-1.164-.23,1.492,1.492,0,0,1-.506-.9,1.275,1.275,0,0,1,.277-.966,1.661,1.661,0,0,1,1.14-.506L185.3,48a58.386,58.386,0,0,0,4.075-7.288h-4.506a1.289,1.289,0,0,1-.936-.322,1.063,1.063,0,0,1-.354-.852,1.139,1.139,0,0,1,.354-.8,1.213,1.213,0,0,1,.936-.344h6.049V34.59H185.65a1.321,1.321,0,0,1-.936-.3,1.124,1.124,0,0,1-.355-.851,1.142,1.142,0,0,1,.355-.828,1.323,1.323,0,0,1,.936-.322h5.265V30.381a1.049,1.049,0,0,1,.328-.852,1.29,1.29,0,0,1,.937-.322,1.383,1.383,0,0,1,.885.322.942.942,0,0,1,.379.852V32.29h5.745a1.3,1.3,0,0,1,.911.3,1.062,1.062,0,0,1,.355.852,1.2,1.2,0,0,1-1.266,1.15h-5.745v3.794h6.529a1.257,1.257,0,0,1,.911.3,1.126,1.126,0,0,1,.354.851,1.059,1.059,0,0,1-.354.8,1.121,1.121,0,0,1-.911.369H192.28a59.812,59.812,0,0,1-3.921,7.058l8.628-.736c-.658-1.127-1.289-2.068-1.847-2.852a1.037,1.037,0,0,1,.227-1.7,1.288,1.288,0,0,1,.962-.23,1.6,1.6,0,0,1,.887.6,33.175,33.175,0,0,1,3.922,6.738,1.1,1.1,0,0,1,.076.966,1.34,1.34,0,0,1-2.455-.092l-.607-1.219Z" transform="translate(-60.978 -1.399)" fill="#fff"/>
      <path id="Path_11661" data-name="Path 11661" d="M201.565,49.734c-1.569,1.012-2.658,1.449-3.24,1.311a1.3,1.3,0,0,1-.885-.621,1.324,1.324,0,0,1-.177-1.012,1.6,1.6,0,0,1,.835-.874,12.189,12.189,0,0,0,1.771-1.081l.127-.115c5.289-3.771,7.973-9.2,7.973-16.235v-.435a1.4,1.4,0,0,1,.43-1.082,1.45,1.45,0,0,1,1.038-.414,1.755,1.755,0,0,1,1.038.368,1.515,1.515,0,0,1,.43,1.128v.55a15.708,15.708,0,0,0,2.784,10.555,23.031,23.031,0,0,0,7.138,6.83,1.463,1.463,0,0,1,.683.989,1.216,1.216,0,0,1-.3,1.035,1.764,1.764,0,0,1-.986.529,2.116,2.116,0,0,1-1.266-.368c-4.605-3.449-7.794-7.359-9.489-11.659a20.971,20.971,0,0,1-7.9,10.6" transform="translate(-52.165 -1.413)" fill="#fff"/>
      <path id="Path_11662" data-name="Path 11662" d="M147.619,22.294a1.322,1.322,0,0,1-.96-.207.988.988,0,0,1-.481-.69,1.052,1.052,0,0,1,.2-.782,1.608,1.608,0,0,1,.911-.483h.328l1.925-2.323a17.359,17.359,0,0,0-2.708-2.116,1.289,1.289,0,0,1-.607-.713.846.846,0,0,1,.1-.8,1.248,1.248,0,0,1,.709-.506,1.444,1.444,0,0,1,.962.138c.581-.989,1.138-2.07,1.7-3.242a1.21,1.21,0,0,1,.733-.6,1.105,1.105,0,0,1,.885.092,1.579,1.579,0,0,1,.608.6c.1.506-.632,1.978-2.176,4.415l1.012.9a27.353,27.353,0,0,0,1.518-3.082,1.252,1.252,0,0,1,.634-.713,1.353,1.353,0,0,1,.911-.046,1.323,1.323,0,0,1,.658.529,1.446,1.446,0,0,1,.075.667,19.42,19.42,0,0,1-3.846,6.462l2.126-.253a3.422,3.422,0,0,1-.405-1.656,1.238,1.238,0,0,1,.608-.621,1.648,1.648,0,0,1,.885-.023,1.2,1.2,0,0,1,.683.644l.684,1.748c.607,1.449.785,2.369.53,2.714a1.059,1.059,0,0,1-.707.506,1.635,1.635,0,0,1-.887-.115,1.7,1.7,0,0,1-.632-1.127l-1.341.184v9.153a1.142,1.142,0,0,1-.354.874,1.359,1.359,0,0,1-.862.345,1.41,1.41,0,0,1-.885-.322,1.239,1.239,0,0,1-.328-.9v-8.9Zm-.3,1.15a1.223,1.223,0,0,1,.76-.3,1.353,1.353,0,0,1,.759.276,1.089,1.089,0,0,1,.253.8v.207c-.379,3.656-.811,5.634-1.189,5.887a1.144,1.144,0,0,1-.811.138,1.27,1.27,0,0,1-.658-.391.988.988,0,0,1-.126-.851,22.353,22.353,0,0,0,.683-5.013,1.1,1.1,0,0,1,.329-.759m8.175,4.484a1.038,1.038,0,0,1-.2.782.942.942,0,0,1-.684.345,1.149,1.149,0,0,1-.733-.161.982.982,0,0,1-.431-.713l-.581-3.955a.934.934,0,0,1,.835-1.127,1.233,1.233,0,0,1,.785.161,1.084,1.084,0,0,1,.43.713ZM161.236,11.1a1.075,1.075,0,0,1,.328-.851,1.292,1.292,0,0,1,.937-.322,1.383,1.383,0,0,1,.885.322.963.963,0,0,1,.379.851v.828h4.379a2.533,2.533,0,0,1,1.163.276,2.243,2.243,0,0,1,.71.828,4.83,4.83,0,0,1-.026,3.059,1.324,1.324,0,0,1-.658.782,1.52,1.52,0,0,1-.911.069,1.071,1.071,0,0,1-.785-1.518,2.114,2.114,0,0,0,.126-.943.63.63,0,0,0-.683-.414h-8.757a.755.755,0,0,0-.607.207.561.561,0,0,0-.229.529v1.058a1.106,1.106,0,0,1-.354.9,1.391,1.391,0,0,1-.859.322,1.369,1.369,0,0,1-.887-.345,1.269,1.269,0,0,1-.329-.874V13.924a1.788,1.788,0,0,1,.632-1.426,2.082,2.082,0,0,1,1.57-.575h3.974ZM158.552,22.57a1.235,1.235,0,0,1,.962-.092,1.165,1.165,0,0,1,.76.529,1.068,1.068,0,0,1,.1.943,26.539,26.539,0,0,1-2.429,5.335,1.466,1.466,0,0,1-.734.644,1.337,1.337,0,0,1-.987-.092.979.979,0,0,1-.632-.644,1.267,1.267,0,0,1,.177-.966,25.268,25.268,0,0,0,2.2-4.875,1.534,1.534,0,0,1,.582-.782m-1.493-1.1a1.261,1.261,0,0,1-.91-.322.975.975,0,0,1-.331-.8,1.093,1.093,0,0,1,.331-.782,1.261,1.261,0,0,1,.91-.322h11.768a1.273,1.273,0,0,1,.885.3,1.036,1.036,0,0,1,.329.8,1.02,1.02,0,0,1-.329.782,1.2,1.2,0,0,1-.885.345h-4.5v7.8a2.655,2.655,0,0,1-1.291,2.277,5.275,5.275,0,0,1-2.557.276c-1.189-.092-1.973-.368-2.252-.828a1.047,1.047,0,0,1-.1-.828,1.188,1.188,0,0,1,1.62-.736,3.662,3.662,0,0,0,1.873.023.872.872,0,0,0,.253-.736V21.467Zm9.288-5.68a1.237,1.237,0,0,1,.835.276.957.957,0,0,1,.329.782.972.972,0,0,1-.329.759,1.16,1.16,0,0,1-.835.322h-7.415a1.166,1.166,0,0,1-.859-.3.957.957,0,0,1-.329-.782.972.972,0,0,1,.329-.759,1.166,1.166,0,0,1,.859-.3Zm-.709,7.382a1.019,1.019,0,0,1,.582-.621,1.193,1.193,0,0,1,1.67.6l1.039,2.415c.454,1.127.835,2.139,1.112,3.059a1.085,1.085,0,0,1-.861,1.426,1.376,1.376,0,0,1-.91-.092,1.155,1.155,0,0,1-.582-.782,51.268,51.268,0,0,0-1.949-5.082,1,1,0,0,1-.1-.92" transform="translate(-74.492 -9.835)" fill="#fff"/>
      <path id="Path_11663" data-name="Path 11663" d="M198.939,18.6a1.579,1.579,0,0,1-1.215-.023,1.547,1.547,0,0,1-.76-.757,1.251,1.251,0,0,1-.024-1.082,1.48,1.48,0,0,1,.885-.713,30.587,30.587,0,0,0,9.844-5.427,1.947,1.947,0,0,1,1.317-.529,1.882,1.882,0,0,1,1.214.392,30.505,30.505,0,0,0,10,5.38,1.46,1.46,0,0,1,.861.736,1.281,1.281,0,0,1,0,1.058,1.4,1.4,0,0,1-.785.782,1.521,1.521,0,0,1-1.19,0l-2-.8a1.172,1.172,0,0,1-.331,1.1,1.274,1.274,0,0,1-.962.368H202.659a1.431,1.431,0,0,1-1.012-.346,1.625,1.625,0,0,1-.329-1.125ZM201.6,31.152a2.2,2.2,0,0,1-1.492-.529,1.678,1.678,0,0,1-.634-1.334V23.034a1.8,1.8,0,0,1,.658-1.378A1.835,1.835,0,0,1,201.6,21.1h14.982a1.834,1.834,0,0,1,1.493.621,2.084,2.084,0,0,1,.532,1.311v6.255a1.784,1.784,0,0,1-.532,1.288,2.317,2.317,0,0,1-1.493.575Zm1.393-7.727a.762.762,0,0,0-.885.8v3.725a.8.8,0,0,0,.885.874h12.046a1.253,1.253,0,0,0,.684-.23.809.809,0,0,0,.252-.644V24.23a.714.714,0,0,0-.277-.573.9.9,0,0,0-.658-.231Zm12.172-6.761-1.112-.6a22.2,22.2,0,0,1-4.328-2.9,1.283,1.283,0,0,0-.734-.276,1.114,1.114,0,0,0-.759.322,30.5,30.5,0,0,1-5.088,3.449Z" transform="translate(-52.34 -9.77)" fill="#fff"/>
      <path id="Path_11664" data-name="Path 11664" d="M102.3,74.863V53.557H96.367v-2.85h14.275v2.85H104.68V74.863Z" transform="translate(-96.269 8.002)" fill="#fff"/>
      <path id="Path_11665" data-name="Path 11665" d="M116.853,72.838V70.267a6.1,6.1,0,0,1-1.8,2.225,3.908,3.908,0,0,1-2.337.742,3.976,3.976,0,0,1-2.636-.914A4.4,4.4,0,0,1,108.622,70a15.665,15.665,0,0,1-.367-3.822V55.339h2.2v9.7a16.8,16.8,0,0,0,.247,3.618,2.787,2.787,0,0,0,.913,1.466,2.318,2.318,0,0,0,1.521.552,3.082,3.082,0,0,0,2.607-1.433q.867-1.238.868-4.532V55.339h2.218v17.5Z" transform="translate(-91.071 10.028)" fill="#fff"/>
      <path id="Path_11666" data-name="Path 11666" d="M119.2,72.958V55.46H121.2v2.472a5.514,5.514,0,0,1,1.758-2.154,4.111,4.111,0,0,1,2.384-.714,4.2,4.2,0,0,1,1.936.454A4.034,4.034,0,0,1,128.71,56.7a5.061,5.061,0,0,1,.815,1.9,17.46,17.46,0,0,1,.269,3.593V72.958h-2.2V62.3a9.63,9.63,0,0,0-.3-2.821,2.8,2.8,0,0,0-.936-1.377,2.373,2.373,0,0,0-1.476-.487,2.969,2.969,0,0,0-2.531,1.3,7.9,7.9,0,0,0-.944,4.471v9.566Z" transform="translate(-86.283 9.907)" fill="#fff"/>
      <path id="Path_11667" data-name="Path 11667" d="M129.943,74.408l2.156.428a3.182,3.182,0,0,0,.9,2.1,2.955,2.955,0,0,0,2.08.688,3.355,3.355,0,0,0,2.315-.768,4.043,4.043,0,0,0,1.176-2.282,23.922,23.922,0,0,0,.194-3.888,5.417,5.417,0,0,1-1.617,1.7,3.623,3.623,0,0,1-1.992.572,4.606,4.606,0,0,1-3.881-2.175,11.428,11.428,0,0,1-1.768-6.706,14.213,14.213,0,0,1,.779-4.927,6.789,6.789,0,0,1,2.045-3.1,4.494,4.494,0,0,1,2.84-.989,3.76,3.76,0,0,1,2.1.622,5.522,5.522,0,0,1,1.686,1.866V55.459H141V70.587a19.4,19.4,0,0,1-.6,5.758,5.513,5.513,0,0,1-1.962,2.719,5.4,5.4,0,0,1-3.28,1,4.987,4.987,0,0,1-3.894-1.5,5.778,5.778,0,0,1-1.319-4.152M131.772,63.9a9.466,9.466,0,0,0,1.033,5.038,3,3,0,0,0,2.538,1.587,3.045,3.045,0,0,0,2.551-1.552,9.012,9.012,0,0,0,1.051-4.94,8.942,8.942,0,0,0-1.078-4.914,3.131,3.131,0,0,0-2.629-1.611,2.933,2.933,0,0,0-2.423,1.611,8.863,8.863,0,0,0-1.043,4.782" transform="translate(-81.778 9.907)" fill="#fff"/>
      <path id="Path_11668" data-name="Path 11668" d="M140.427,67.718l2.2-.461a4.571,4.571,0,0,0,1.061,2.757,3.047,3.047,0,0,0,2.3.9,3.009,3.009,0,0,0,2.219-.782,2.7,2.7,0,0,0,.783-1.986,2.007,2.007,0,0,0-.674-1.614,8.021,8.021,0,0,0-2.246-.989,15.477,15.477,0,0,1-3.445-1.483,4.046,4.046,0,0,1-1.348-1.631,5.394,5.394,0,0,1-.479-2.323,5.135,5.135,0,0,1,1.3-3.642,4.689,4.689,0,0,1,3.61-1.4,5.419,5.419,0,0,1,2.554.578,4.156,4.156,0,0,1,1.684,1.549,7.2,7.2,0,0,1,.809,2.784l-2.157.4q-.3-2.867-2.83-2.867a3.131,3.131,0,0,0-2.143.632,2.072,2.072,0,0,0-.7,1.616,1.872,1.872,0,0,0,.675,1.526,11.3,11.3,0,0,0,2.4,1.051,17.252,17.252,0,0,1,3.552,1.528,3.777,3.777,0,0,1,1.253,1.551,5.61,5.61,0,0,1,.447,2.336,5.712,5.712,0,0,1-1.446,4.06,5.129,5.129,0,0,1-3.947,1.552q-4.689,0-5.437-5.636" transform="translate(-77.003 9.907)" fill="#fff"/>
      <path id="Path_11669" data-name="Path 11669" d="M152.452,59.315h-1.364l-.594-8.289h2.551Z" transform="translate(-72.601 8.142)" fill="#fff"/>
      <path id="Path_11670" data-name="Path 11670" d="M164.341,74.863V53.557h-5.932v-2.85h14.275v2.85h-5.962V74.863Z" transform="translate(-69.14 8.002)" fill="#fff"/>
      <path id="Path_11671" data-name="Path 11671" d="M177.761,70.8a8.413,8.413,0,0,1-2.307,1.912,5.215,5.215,0,0,1-2.486.642A4.158,4.158,0,0,1,169.717,72a5.253,5.253,0,0,1-1.213-3.642,6.059,6.059,0,0,1,.569-2.685,4.523,4.523,0,0,1,1.558-1.83,7.636,7.636,0,0,1,3-.972,15.48,15.48,0,0,0,3.954-1.039l.014-.757a4.108,4.108,0,0,0-.584-2.521,3.013,3.013,0,0,0-2.531-1.055,3.3,3.3,0,0,0-2.307.7,4.784,4.784,0,0,0-1.124,2.64l-2.172-.4a6.879,6.879,0,0,1,1.88-4.1,5.821,5.821,0,0,1,4.052-1.285,5.385,5.385,0,0,1,3.221.849,3.624,3.624,0,0,1,1.475,2.1,16.43,16.43,0,0,1,.308,3.658v3.954q0,4.152.142,5.232a8.373,8.373,0,0,0,.562,2.1h-2.307a7.876,7.876,0,0,1-.45-2.159m-.18-6.624a13.028,13.028,0,0,1-3.61,1.121,6.349,6.349,0,0,0-1.947.6,2.271,2.271,0,0,0-.861.956,3.154,3.154,0,0,0-.308,1.426,2.806,2.806,0,0,0,.7,2,2.54,2.54,0,0,0,1.948.749,3.671,3.671,0,0,0,2.15-.676,4.1,4.1,0,0,0,1.444-1.8,8.738,8.738,0,0,0,.48-3.287Z" transform="translate(-64.726 9.907)" fill="#fff"/>
      <path id="Path_11672" data-name="Path 11672" d="M179.944,50.707h2.2v3.412h-2.2Zm0,6.657h2.2v17.5h-2.2Z" transform="translate(-59.723 8.002)" fill="#fff"/>
      <path id="Path_11673" data-name="Path 11673" d="M193.745,66.549l2.17.378a8.386,8.386,0,0,1-1.88,4.779,4.725,4.725,0,0,1-3.618,1.647,4.992,4.992,0,0,1-4.216-2.314q-1.658-2.315-1.654-6.847,0-4.564,1.669-6.846a5.1,5.1,0,0,1,4.292-2.282,4.635,4.635,0,0,1,3.408,1.384,7.112,7.112,0,0,1,1.775,4.152l-2.142.428a5.364,5.364,0,0,0-1.094-2.649,2.423,2.423,0,0,0-1.873-.877,3.165,3.165,0,0,0-2.7,1.59,9.231,9.231,0,0,0-1.072,5.051,9.908,9.908,0,0,0,1.025,5.173,3.047,3.047,0,0,0,2.63,1.6,2.721,2.721,0,0,0,2.15-1.064,6.156,6.156,0,0,0,1.131-3.3" transform="translate(-57.71 9.907)" fill="#fff"/>
      <path id="Path_11674" data-name="Path 11674" d="M194.934,74.863V50.707h2.2v8.668A5.665,5.665,0,0,1,198.9,57.57a4.34,4.34,0,0,1,5.452.857q1.205,1.457,1.206,5.347v11.09h-2.2V63.773a5.593,5.593,0,0,0-.733-3.263,2.384,2.384,0,0,0-2.022-.989,3.037,3.037,0,0,0-2.449,1.271q-1.011,1.268-1.012,4.5v9.574Z" transform="translate(-53.169 8.002)" fill="#fff"/>
      <path id="Path_11675" data-name="Path 11675" d="M214.4,72.838V70.267a6.094,6.094,0,0,1-1.8,2.225,3.908,3.908,0,0,1-2.337.742,3.975,3.975,0,0,1-2.636-.914A4.4,4.4,0,0,1,206.167,70a15.666,15.666,0,0,1-.367-3.822V55.339H208v9.7a16.8,16.8,0,0,0,.247,3.618,2.786,2.786,0,0,0,.913,1.466,2.318,2.318,0,0,0,1.521.552,3.082,3.082,0,0,0,2.607-1.433q.867-1.238.868-4.532V55.339h2.218v17.5Z" transform="translate(-48.417 10.028)" fill="#fff"/>
      <path id="Path_11676" data-name="Path 11676" d="M216.75,72.958V55.46h1.992v2.472a5.515,5.515,0,0,1,1.758-2.154,4.111,4.111,0,0,1,2.384-.714,4.2,4.2,0,0,1,1.936.454,4.035,4.035,0,0,1,1.436,1.187,5.061,5.061,0,0,1,.815,1.9,17.461,17.461,0,0,1,.269,3.593V72.958h-2.2V62.3a9.631,9.631,0,0,0-.3-2.821A2.8,2.8,0,0,0,223.9,58.1a2.373,2.373,0,0,0-1.476-.487,2.969,2.969,0,0,0-2.531,1.3,7.9,7.9,0,0,0-.944,4.471v9.566Z" transform="translate(-43.629 9.907)" fill="#fff"/>
      <path id="Path_11677" data-name="Path 11677" d="M227.489,74.408l2.156.428a3.188,3.188,0,0,0,.9,2.1,2.959,2.959,0,0,0,2.081.688,3.349,3.349,0,0,0,2.314-.768,4.045,4.045,0,0,0,1.177-2.282,23.926,23.926,0,0,0,.194-3.888,5.433,5.433,0,0,1-1.617,1.7,3.632,3.632,0,0,1-1.993.572,4.6,4.6,0,0,1-3.879-2.175,11.417,11.417,0,0,1-1.768-6.706,14.214,14.214,0,0,1,.779-4.927,6.789,6.789,0,0,1,2.045-3.1,4.491,4.491,0,0,1,2.839-.989,3.761,3.761,0,0,1,2.1.622,5.537,5.537,0,0,1,1.686,1.866V55.459h2.037V70.587a19.409,19.409,0,0,1-.6,5.758,5.513,5.513,0,0,1-1.962,2.719,5.4,5.4,0,0,1-3.281,1,4.989,4.989,0,0,1-3.894-1.5,5.784,5.784,0,0,1-1.318-4.152M229.316,63.9a9.464,9.464,0,0,0,1.035,5.038,3,3,0,0,0,2.538,1.587,3.045,3.045,0,0,0,2.551-1.552,9.012,9.012,0,0,0,1.051-4.94,8.927,8.927,0,0,0-1.081-4.914,3.125,3.125,0,0,0-2.626-1.611,2.937,2.937,0,0,0-2.425,1.611,8.875,8.875,0,0,0-1.043,4.782" transform="translate(-39.123 9.907)" fill="#fff"/>
      <path id="Path_11678" data-name="Path 11678" d="M242.727,74.863V50.707h3.582l4.274,17.1.854,3.576q.315-1.334.96-3.872l4.32-16.807h3.207V74.863h-2.292v-20.2l-5.252,20.2h-2.14l-5.22-20.55v20.55Z" transform="translate(-32.27 8.002)" fill="#fff"/>
      <path id="Path_11679" data-name="Path 11679" d="M267.46,67.323l2.277.379a7.867,7.867,0,0,1-2.06,4.227,5.138,5.138,0,0,1-3.692,1.424,5.334,5.334,0,0,1-4.487-2.314q-1.716-2.315-1.715-6.682,0-4.532,1.731-6.912a5.219,5.219,0,0,1,4.381-2.382,5.053,5.053,0,0,1,4.224,2.34q1.692,2.339,1.693,6.771l-.014.792H260.06a8.088,8.088,0,0,0,1.243,4.448,3.268,3.268,0,0,0,2.7,1.5q2.486,0,3.461-3.593m-7.265-4.795h7.28a7.173,7.173,0,0,0-.884-3.393A3.153,3.153,0,0,0,263.88,57.5a3.115,3.115,0,0,0-2.532,1.36,6.344,6.344,0,0,0-1.153,3.666" transform="translate(-25.686 9.907)" fill="#fff"/>
      <path id="Path_11680" data-name="Path 11680" d="M274.483,72.045l.3,2.62a6.021,6.021,0,0,1-1.647.263,3.128,3.128,0,0,1-1.857-.5,2.53,2.53,0,0,1-.967-1.375,14.725,14.725,0,0,1-.262-3.478V59.506h-1.618V57.2h1.618V52.866l2.2-1.781V57.2h2.232v2.307h-2.232V69.738a5.251,5.251,0,0,0,.2,1.83,1.068,1.068,0,0,0,1.064.594,5.343,5.343,0,0,0,.973-.116" transform="translate(-21.03 8.167)" fill="#fff"/>
      <path id="Path_11681" data-name="Path 11681" d="M275.264,72.958V55.46h1.992v2.652a7.543,7.543,0,0,1,1.4-2.446,2.035,2.035,0,0,1,1.43-.6,3.588,3.588,0,0,1,2.262.957l-.749,2.751a2.635,2.635,0,0,0-1.6-.642,1.846,1.846,0,0,0-1.288.545,2.979,2.979,0,0,0-.823,1.515,14.969,14.969,0,0,0-.42,3.609v9.161Z" transform="translate(-18.042 9.907)" fill="#fff"/>
      <path id="Path_11682" data-name="Path 11682" d="M281.68,64.208q0-4.53,1.73-6.837a5.293,5.293,0,0,1,8.74,0q1.753,2.307,1.753,6.656,0,4.715-1.723,7.02a5.3,5.3,0,0,1-8.756-.007q-1.744-2.315-1.745-6.831m2.262-.007a9.114,9.114,0,0,0,1.124,5.056,3.294,3.294,0,0,0,2.785,1.659,3.2,3.2,0,0,0,2.675-1.676,9.177,9.177,0,0,0,1.115-5.039,9.077,9.077,0,0,0-1.124-5.041,3.294,3.294,0,0,0-2.785-1.659,3.194,3.194,0,0,0-2.682,1.667,9.183,9.183,0,0,0-1.108,5.032" transform="translate(-15.237 9.907)" fill="#fff"/>
      <path id="Path_11683" data-name="Path 11683" d="M293.38,74.863V50.707h2.382v9.92h9.362v-9.92h2.382V74.863h-2.382V63.477h-9.362V74.863Z" transform="translate(-10.121 8.002)" fill="#fff"/>
      <path id="Path_11684" data-name="Path 11684" d="M315.7,70.8a8.412,8.412,0,0,1-2.307,1.912,5.216,5.216,0,0,1-2.487.642A4.158,4.158,0,0,1,307.659,72a5.253,5.253,0,0,1-1.213-3.642,6.059,6.059,0,0,1,.569-2.685,4.523,4.523,0,0,1,1.558-1.83,7.637,7.637,0,0,1,3-.972,15.479,15.479,0,0,0,3.954-1.039l.014-.757a4.109,4.109,0,0,0-.584-2.521,3.013,3.013,0,0,0-2.531-1.055,3.3,3.3,0,0,0-2.307.7,4.784,4.784,0,0,0-1.124,2.64l-2.172-.4a6.879,6.879,0,0,1,1.88-4.1,5.821,5.821,0,0,1,4.052-1.285,5.385,5.385,0,0,1,3.221.849,3.624,3.624,0,0,1,1.475,2.1,16.435,16.435,0,0,1,.308,3.658v3.954q0,4.152.142,5.232a8.435,8.435,0,0,0,.562,2.1h-2.307a7.877,7.877,0,0,1-.45-2.159m-.18-6.624a13.027,13.027,0,0,1-3.61,1.121,6.351,6.351,0,0,0-1.948.6,2.271,2.271,0,0,0-.861.956,3.154,3.154,0,0,0-.308,1.426,2.806,2.806,0,0,0,.7,2,2.54,2.54,0,0,0,1.947.749,3.671,3.671,0,0,0,2.15-.676,4.113,4.113,0,0,0,1.446-1.8,8.774,8.774,0,0,0,.479-3.287Z" transform="translate(-4.407 9.907)" fill="#fff"/>
      <path id="Path_11685" data-name="Path 11685" d="M317.886,72.958V55.46h1.992v2.652a7.571,7.571,0,0,1,1.4-2.446,2.035,2.035,0,0,1,1.43-.6,3.585,3.585,0,0,1,2.262.957l-.749,2.751a2.632,2.632,0,0,0-1.6-.642,1.846,1.846,0,0,0-1.288.545,2.979,2.979,0,0,0-.824,1.515,15.045,15.045,0,0,0-.42,3.609v9.161Z" transform="translate(0.595 9.907)" fill="#fff"/>
      <path id="Path_11686" data-name="Path 11686" d="M326.917,74.863h-2.052V50.707h2.218v8.618a5.3,5.3,0,0,1,1.6-1.771,3.544,3.544,0,0,1,1.985-.586,4.332,4.332,0,0,1,2.778,1.006,6.805,6.805,0,0,1,2,3.048,14.454,14.454,0,0,1,.749,4.96,11.843,11.843,0,0,1-1.695,6.863,4.83,4.83,0,0,1-3.961,2.413,3.424,3.424,0,0,1-2.047-.651,5.273,5.273,0,0,1-1.57-1.936Zm-.032-8.881a13.742,13.742,0,0,0,.45,4.07,4.533,4.533,0,0,0,1.276,2.06,2.751,2.751,0,0,0,1.831.709,2.96,2.96,0,0,0,2.428-1.689,9.656,9.656,0,0,0,1.058-5.052,9.725,9.725,0,0,0-1.02-5.058,2.954,2.954,0,0,0-2.51-1.615,2.992,2.992,0,0,0-2.44,1.689,9.173,9.173,0,0,0-1.072,4.887" transform="translate(3.647 8.002)" fill="#fff"/>
      <path id="Path_11687" data-name="Path 11687" d="M335.21,64.208q0-4.53,1.73-6.837a5.293,5.293,0,0,1,8.74,0q1.753,2.307,1.753,6.656,0,4.715-1.723,7.02a5.3,5.3,0,0,1-8.756-.007q-1.744-2.315-1.745-6.831m2.262-.007a9.114,9.114,0,0,0,1.124,5.056,3.294,3.294,0,0,0,2.785,1.659,3.2,3.2,0,0,0,2.675-1.676,9.177,9.177,0,0,0,1.115-5.039,9.077,9.077,0,0,0-1.124-5.041,3.294,3.294,0,0,0-2.785-1.659,3.2,3.2,0,0,0-2.682,1.667,9.184,9.184,0,0,0-1.108,5.032" transform="translate(8.17 9.907)" fill="#fff"/>
      <path id="Path_11688" data-name="Path 11688" d="M346.7,72.958V55.46H348.7v2.652a7.572,7.572,0,0,1,1.4-2.446,2.033,2.033,0,0,1,1.43-.6,3.591,3.591,0,0,1,2.262.957l-.749,2.751a2.635,2.635,0,0,0-1.6-.642,1.846,1.846,0,0,0-1.288.545,2.979,2.979,0,0,0-.824,1.515,14.9,14.9,0,0,0-.42,3.609v9.161Z" transform="translate(13.196 9.907)" fill="#fff"/>
      <path id="Path_11689" data-name="Path 11689" d="M358.345,74.863V50.707h2.382v9.92h9.362v-9.92h2.382V74.863h-2.382V63.477h-9.362V74.863Z" transform="translate(18.287 8.002)" fill="#fff"/>
      <path id="Path_11690" data-name="Path 11690" d="M371.358,64.208q0-4.53,1.73-6.837a5.293,5.293,0,0,1,8.74,0q1.753,2.307,1.754,6.656,0,4.715-1.723,7.02a5.3,5.3,0,0,1-8.756-.007q-1.744-2.315-1.745-6.831m2.262-.007a9.113,9.113,0,0,0,1.124,5.056,3.294,3.294,0,0,0,2.785,1.659A3.2,3.2,0,0,0,380.2,69.24,9.177,9.177,0,0,0,381.32,64.2,9.076,9.076,0,0,0,380.2,59.16,3.294,3.294,0,0,0,377.41,57.5a3.2,3.2,0,0,0-2.682,1.667A9.184,9.184,0,0,0,373.62,64.2" transform="translate(23.977 9.907)" fill="#fff"/>
      <path id="Path_11691" data-name="Path 11691" d="M382.256,67.718l2.2-.461a4.562,4.562,0,0,0,1.062,2.757,3.042,3.042,0,0,0,2.3.9,3.009,3.009,0,0,0,2.219-.782,2.7,2.7,0,0,0,.783-1.986,2.007,2.007,0,0,0-.674-1.614,8,8,0,0,0-2.246-.989,15.509,15.509,0,0,1-3.445-1.483,4.069,4.069,0,0,1-1.348-1.631,5.4,5.4,0,0,1-.479-2.323,5.135,5.135,0,0,1,1.3-3.642,4.689,4.689,0,0,1,3.61-1.4,5.419,5.419,0,0,1,2.554.578,4.146,4.146,0,0,1,1.684,1.549,7.2,7.2,0,0,1,.809,2.784l-2.157.4q-.3-2.867-2.83-2.867a3.131,3.131,0,0,0-2.143.632,2.071,2.071,0,0,0-.7,1.616,1.868,1.868,0,0,0,.676,1.526,11.231,11.231,0,0,0,2.4,1.051,17.228,17.228,0,0,1,3.55,1.528,3.781,3.781,0,0,1,1.255,1.551,5.61,5.61,0,0,1,.447,2.336,5.712,5.712,0,0,1-1.446,4.06,5.127,5.127,0,0,1-3.947,1.552q-4.687,0-5.437-5.636" transform="translate(28.742 9.907)" fill="#fff"/>
      <path id="Path_11692" data-name="Path 11692" d="M392.778,79.665V55.46h2.038v2.274a5.575,5.575,0,0,1,1.659-2.044,3.617,3.617,0,0,1,2.1-.627,4.3,4.3,0,0,1,2.78,1.006,6.874,6.874,0,0,1,2,3.057,14.294,14.294,0,0,1,.755,4.934q0,4.465-1.7,6.879a4.856,4.856,0,0,1-3.991,2.415,3.416,3.416,0,0,1-1.9-.578,5.027,5.027,0,0,1-1.528-1.63v8.519Zm2.009-15.357a9.477,9.477,0,0,0,1.032,5,2.7,2.7,0,0,0,4.96-.059,9.768,9.768,0,0,0,1.062-5.14,9.793,9.793,0,0,0-1.032-5.076,2.962,2.962,0,0,0-2.509-1.647q-1.332,0-2.42,1.771a9.913,9.913,0,0,0-1.092,5.15" transform="translate(33.343 9.907)" fill="#fff"/>
      <path id="Path_11693" data-name="Path 11693" d="M403.686,50.707h2.2v3.412h-2.2Zm0,6.657h2.2v17.5h-2.2Z" transform="translate(38.113 8.002)" fill="#fff"/>
      <path id="Path_11694" data-name="Path 11694" d="M414.008,72.045l.3,2.62a6.013,6.013,0,0,1-1.647.263,3.13,3.13,0,0,1-1.857-.5,2.53,2.53,0,0,1-.967-1.375,14.724,14.724,0,0,1-.262-3.478V59.506h-1.618V57.2h1.618V52.866l2.2-1.781V57.2h2.232v2.307h-2.232V69.738a5.289,5.289,0,0,0,.2,1.83,1.069,1.069,0,0,0,1.064.594,5.33,5.33,0,0,0,.973-.116" transform="translate(39.98 8.167)" fill="#fff"/>
      <path id="Path_11695" data-name="Path 11695" d="M423.515,70.8a8.412,8.412,0,0,1-2.307,1.912,5.212,5.212,0,0,1-2.487.642A4.158,4.158,0,0,1,415.471,72a5.254,5.254,0,0,1-1.213-3.642,6.059,6.059,0,0,1,.569-2.685,4.533,4.533,0,0,1,1.558-1.83,7.636,7.636,0,0,1,3-.972,15.48,15.48,0,0,0,3.954-1.039l.014-.757a4.108,4.108,0,0,0-.584-2.521,3.013,3.013,0,0,0-2.531-1.055,3.3,3.3,0,0,0-2.307.7,4.784,4.784,0,0,0-1.124,2.64l-2.172-.4a6.879,6.879,0,0,1,1.88-4.1,5.821,5.821,0,0,1,4.052-1.285,5.385,5.385,0,0,1,3.221.849,3.624,3.624,0,0,1,1.475,2.1,16.431,16.431,0,0,1,.308,3.658v3.954q0,4.152.142,5.232a8.435,8.435,0,0,0,.562,2.1h-2.307a7.878,7.878,0,0,1-.45-2.159m-.18-6.624a13.029,13.029,0,0,1-3.61,1.121,6.349,6.349,0,0,0-1.948.6,2.281,2.281,0,0,0-.861.956,3.173,3.173,0,0,0-.308,1.426,2.806,2.806,0,0,0,.7,2,2.54,2.54,0,0,0,1.948.749,3.671,3.671,0,0,0,2.15-.676,4.113,4.113,0,0,0,1.446-1.8,8.773,8.773,0,0,0,.479-3.287Z" transform="translate(42.736 9.907)" fill="#fff"/>
      <rect id="Rectangle_143496" data-name="Rectangle 143496" width="2.202" height="24.156" transform="translate(473.362 58.71)" fill="#fff"/>
    </g>
    <g id="Group_159669" data-name="Group 159669" transform="translate(-4.322 -3.525)">
      <circle id="Ellipse_2" data-name="Ellipse 2" cx="65" cy="65" r="65" transform="translate(0 0)" fill="#fff"/>
      <rect id="Rectangle_143497" data-name="Rectangle 143497" width="18.127" height="23.177" transform="translate(45.793 19.094)" fill="#008a32"/>
      <rect id="Rectangle_143498" data-name="Rectangle 143498" width="18.127" height="23.103" transform="translate(45.793 86.922)" fill="#008a32"/>
      <rect id="Rectangle_143499" data-name="Rectangle 143499" width="23.216" height="18.124" transform="translate(19.899 65.989)" fill="#008a32"/>
      <rect id="Rectangle_143500" data-name="Rectangle 143500" width="18.127" height="23.103" transform="translate(66.92 86.922)" fill="#008a32"/>
      <rect id="Rectangle_143501" data-name="Rectangle 143501" width="23.07" height="18.124" transform="translate(87.773 65.989)" fill="#008a32"/>
      <rect id="Rectangle_143502" data-name="Rectangle 143502" width="23.216" height="18.124" transform="translate(19.899 44.866)" fill="#008a32"/>
      <rect id="Rectangle_143503" data-name="Rectangle 143503" width="23.07" height="18.124" transform="translate(87.773 44.866)" fill="#008a32"/>
      <rect id="Rectangle_143504" data-name="Rectangle 143504" width="18.127" height="23.177" transform="translate(66.92 19.094)" fill="#008a32"/>
      <path id="Path_11696" data-name="Path 11696" d="M30.7,27.314,16.42,8.857q-1.14.974-2.229,2L30.7,31.79Z" transform="translate(12.417 9.234)" fill="#ffec00"/>
      <path id="Path_11697" data-name="Path 11697" d="M27.886,13.155v5.358L20.626,5.967A30.161,30.161,0,0,1,23.35,4.452Z" transform="translate(15.231 7.308)" fill="#ffec00"/>
      <path id="Path_11698" data-name="Path 11698" d="M29.5,20.822,19.5,6.633c-.957.631-1.661,1.19-2.563,1.84L29.5,25.878Z" transform="translate(13.619 8.262)" fill="#ffec00"/>
      <path id="Path_11699" data-name="Path 11699" d="M36.3,11,35.189.574q-1.485.248-2.944.572L33.477,11Z" transform="translate(20.312 5.613)" fill="#ffec00"/>
      <path id="Path_11700" data-name="Path 11700" d="M33.419,10.619,31.151,1.448c-.97.254-1.723.473-2.673.775l2.287,8.4Z" transform="translate(18.665 5.995)" fill="#ffec00"/>
      <path id="Path_11701" data-name="Path 11701" d="M29.919,10.053l-2.764-7.31c-.943.341-1.532.569-2.451.956l2.462,6.354Z" transform="translate(17.015 6.561)" fill="#ffec00"/>
      <path id="Path_11702" data-name="Path 11702" d="M23.593,29.467,8.361,17.02q-.914,1.188-1.768,2.422L19.554,29.467Z" transform="translate(9.095 12.804)" fill="#ffec00"/>
      <path id="Path_11703" data-name="Path 11703" d="M11.156,35.588.572,34.979Q.35,36.456.2,37.954l10.955.421Z" transform="translate(6.3 20.657)" fill="#ffec00"/>
      <path id="Path_11704" data-name="Path 11704" d="M10.879,33.222,1.511,30.828Q1.138,32.277.834,33.75l10.045,2.08Z" transform="translate(6.577 18.842)" fill="#ffec00"/>
      <path id="Path_11705" data-name="Path 11705" d="M11.244,38.864l-11.112-.4C.062,39.456.02,40.39,0,41.395H11.244Z" transform="translate(6.212 22.181)" fill="#ffec00"/>
      <path id="Path_11706" data-name="Path 11706" d="M10.486,30.072,2.666,27.34c-.341.937-.641,1.841-.934,2.8l8.754,2.622Z" transform="translate(6.969 17.317)" fill="#ffec00"/>
      <path id="Path_11707" data-name="Path 11707" d="M31.667,31.969,13.609,11.3c-.768.756-1.627,1.512-2.275,2.274l16.6,18.4Z" transform="translate(11.168 10.301)" fill="#ffec00"/>
      <path id="Path_11708" data-name="Path 11708" d="M27.815,30.815,10.78,13.937c-.756.908-1.462,1.811-1.926,2.489l15.16,14.389Z" transform="translate(10.084 11.456)" fill="#ffec00"/>
      <path id="Path_11709" data-name="Path 11709" d="M39.776,11.2,38.895.122c-1,.069-1.726.138-2.714.257L37.233,11.2Z" transform="translate(22.033 5.415)" fill="#ffec00"/>
      <path id="Path_11710" data-name="Path 11710" d="M9.906,26.75V29.5L3.059,26.3c.385-.924.691-1.626,1.121-2.527Z" transform="translate(7.55 15.756)" fill="#ffec00"/>
      <path id="Path_11711" data-name="Path 11711" d="M17.645,28.142,6.282,20.049q-.783,1.276-1.5,2.594l8.622,5.5Z" transform="translate(8.301 14.128)" fill="#ffec00"/>
      <path id="Path_11712" data-name="Path 11712" d="M56.746,30.757,73.66,10.994q-1.119-1-2.29-1.936L56.746,26.347Z" transform="translate(31.026 9.322)" fill="#ffec00"/>
      <path id="Path_11713" data-name="Path 11713" d="M74.6,29.616,81.592,26.9q-.552-1.4-1.173-2.761L74.6,26.595Z" transform="translate(38.833 15.916)" fill="#ffec00"/>
      <path id="Path_11714" data-name="Path 11714" d="M73.439,27.92,82,23.207q-.668-1.345-1.4-2.65L68.183,27.92Z" transform="translate(36.027 14.351)" fill="#ffec00"/>
      <path id="Path_11715" data-name="Path 11715" d="M74.6,32.957,83.3,30.4q-.425-1.444-.92-2.854L74.6,29.808Z" transform="translate(38.833 17.407)" fill="#ffec00"/>
      <path id="Path_11716" data-name="Path 11716" d="M68.057,29.354l12.838-9.831c-.523-.852-.893-1.421-1.457-2.245l-15.5,12.076Z" transform="translate(34.172 12.917)" fill="#ffec00"/>
      <path id="Path_11717" data-name="Path 11717" d="M63.915,30.538l15.948-13.6q-.89-1.207-1.84-2.367L60.2,30.538Z" transform="translate(32.534 11.733)" fill="#ffec00"/>
      <path id="Path_11718" data-name="Path 11718" d="M74.6,41.618l11.089-.206q-.024-1.507-.122-3L74.6,38.851Z" transform="translate(38.833 22.16)" fill="#ffec00"/>
      <path id="Path_11719" data-name="Path 11719" d="M74.6,39.083l10.811-1.1q-.149-1.5-.369-2.977L74.6,36.3Z" transform="translate(38.833 20.667)" fill="#ffec00"/>
      <path id="Path_11720" data-name="Path 11720" d="M74.6,36.246l9.97-2.234q-.293-1.477-.657-2.926L74.6,33.173Z" transform="translate(38.833 18.955)" fill="#ffec00"/>
      <path id="Path_11721" data-name="Path 11721" d="M43.151,11.252V.02Q42.379,0,41.6,0c-.486,0-.969.007-1.452.019V11.252Z" transform="translate(23.769 5.362)" fill="#ffec00"/>
      <path id="Path_11722" data-name="Path 11722" d="M53.318,10.607l2.5-8.263q-1.419-.47-2.87-.87l-2.767,9.132Z" transform="translate(28.157 6.007)" fill="#ffec00"/>
      <path id="Path_11723" data-name="Path 11723" d="M49.94,10.979,51.921,1.22Q50.463.885,48.98.626l-2.1,10.353Z" transform="translate(26.711 5.635)" fill="#ffec00"/>
      <path id="Path_11724" data-name="Path 11724" d="M11.242,41.707,0,41.683q.019,1.509.112,3l11.126-.441Z" transform="translate(6.214 23.588)" fill="#ffec00"/>
      <path id="Path_11725" data-name="Path 11725" d="M46.407,11.2,47.462.4Q45.981.217,44.477.109L43.393,11.2Z" transform="translate(25.187 5.409)" fill="#ffec00"/>
      <path id="Path_11726" data-name="Path 11726" d="M56.746,25.526l12.281-17.2q-1.214-.88-2.472-1.7l-9.809,14.3Z" transform="translate(31.026 8.262)" fill="#ffec00"/>
      <path id="Path_11727" data-name="Path 11727" d="M56.746,18.514,63.832,5.9q-1.3-.748-2.637-1.43l-4.448,8.214Z" transform="translate(31.026 7.317)" fill="#ffec00"/>
      <path id="Path_11728" data-name="Path 11728" d="M57.034,10.063l2.557-6.2Q58.224,3.258,56.82,2.72l-3.03,7.343Z" transform="translate(29.733 6.551)" fill="#ffec00"/>
      <path id="Path_11729" data-name="Path 11729" d="M40.151,74.6V85.673c.483.012.966.017,1.452.017q.776,0,1.548-.02V74.6Z" transform="translate(23.769 37.981)" fill="#ffec00"/>
      <path id="Path_11730" data-name="Path 11730" d="M43.567,74.6l.826,10.938q1.5-.108,2.987-.289L46.58,74.6Z" transform="translate(25.263 37.981)" fill="#ffec00"/>
      <path id="Path_11731" data-name="Path 11731" d="M56.746,67.57,66.955,81.226q1.231-.86,2.415-1.779L56.746,62.5Z" transform="translate(31.026 32.692)" fill="#ffec00"/>
      <path id="Path_11732" data-name="Path 11732" d="M61.438,82.038c.908-.423,1.605-.868,2.488-1.334l-7.179-12.7v5.61Z" transform="translate(31.026 35.099)" fill="#ffec00"/>
      <path id="Path_11733" data-name="Path 11733" d="M60.436,56.746,77.62,72.856c.749-.871,1.258-1.542,1.817-2.241l-15.2-13.87Z" transform="translate(32.639 30.175)" fill="#ffec00"/>
      <path id="Path_11734" data-name="Path 11734" d="M56.746,56.746,75.791,76.608c.683-.73,1.4-1.478,2.042-2.241L60.73,56.746Z" transform="translate(31.026 30.175)" fill="#ffec00"/>
      <path id="Path_11735" data-name="Path 11735" d="M56.746,62.384l15,17.295q1.136-.981,2.223-2.014L56.746,57.908Z" transform="translate(31.026 30.683)" fill="#ffec00"/>
      <path id="Path_11736" data-name="Path 11736" d="M47.045,74.6l1.544,10.248q1.485-.252,2.944-.579L50.1,74.6Z" transform="translate(26.784 37.981)" fill="#ffec00"/>
      <path id="Path_11737" data-name="Path 11737" d="M53.729,74.6l2.941,7.271q1.414-.515,2.791-1.1L56.95,74.6Z" transform="translate(29.706 37.981)" fill="#ffec00"/>
      <path id="Path_11738" data-name="Path 11738" d="M50.216,74.6l2.535,8.983q1.453-.386,2.877-.842L53.341,74.6Z" transform="translate(28.17 37.981)" fill="#ffec00"/>
      <path id="Path_11739" data-name="Path 11739" d="M74.6,54.242l7.645,2.538q.5-1.408.939-2.849L74.6,51.081Z" transform="translate(38.833 27.698)" fill="#ffec00"/>
      <path id="Path_11740" data-name="Path 11740" d="M64.177,56.746,79.368,68.483c.607-.795.87-1.19,1.436-2.015L67.841,56.746Z" transform="translate(34.275 30.175)" fill="#ffec00"/>
      <path id="Path_11741" data-name="Path 11741" d="M74.6,41.68v2.767l10.964.483q.1-1.49.125-3Z" transform="translate(38.833 23.587)" fill="#ffec00"/>
      <path id="Path_11742" data-name="Path 11742" d="M74.6,50.725l9.272,2.137q.369-1.449.665-2.925L74.6,47.882Z" transform="translate(38.833 26.299)" fill="#ffec00"/>
      <path id="Path_11743" data-name="Path 11743" d="M74.6,47.463l10.465.836q.218-1.477.361-2.977L74.6,44.676Z" transform="translate(38.833 24.897)" fill="#ffec00"/>
      <path id="Path_11744" data-name="Path 11744" d="M68.121,56.746l12.01,8.024q.78-1.278,1.495-2.6l-8.437-5.426Z" transform="translate(36 30.175)" fill="#ffec00"/>
      <path id="Path_11745" data-name="Path 11745" d="M80.162,60.2c.427-.9.714-1.552,1.1-2.478L74.6,54.77v2.84Z" transform="translate(38.833 29.311)" fill="#ffec00"/>
      <path id="Path_11746" data-name="Path 11746" d="M33.924,74.6l-1.95,9.612q1.455.332,2.941.591l2.068-10.2Z" transform="translate(20.193 37.981)" fill="#ffec00"/>
      <path id="Path_11747" data-name="Path 11747" d="M13,56.746,4.5,61.245Q5.17,62.59,5.9,63.9l12.115-7.152Z" transform="translate(8.182 30.175)" fill="#ffec00"/>
      <path id="Path_11748" data-name="Path 11748" d="M19.245,56.746l-12.736,9.5q.783,1.281,1.628,2.518L23.83,56.746Z" transform="translate(9.058 30.175)" fill="#ffec00"/>
      <path id="Path_11749" data-name="Path 11749" d="M24.5,56.746,8.461,70.2q.888,1.209,1.835,2.371L28.218,56.746Z" transform="translate(9.912 30.175)" fill="#ffec00"/>
      <path id="Path_11750" data-name="Path 11750" d="M75.759,11.692q1.061,1.059,2.07,2.172L60.32,31.8H56.747Z" transform="translate(31.026 10.474)" fill="#ffec00"/>
      <path id="Path_11751" data-name="Path 11751" d="M37.192,74.6,36.151,85.253q1.483.181,2.987.286L40.206,74.6Z" transform="translate(22.02 37.981)" fill="#ffec00"/>
      <path id="Path_11752" data-name="Path 11752" d="M9.965,54.546,2.924,57.227c.365.933.727,1.794,1.138,2.7l5.9-2.6Z" transform="translate(7.491 29.213)" fill="#ffec00"/>
      <path id="Path_11753" data-name="Path 11753" d="M10.529,50.86,1.635,53.477q.42,1.444.913,2.856l7.981-2.324Z" transform="translate(6.927 27.601)" fill="#ffec00"/>
      <path id="Path_11754" data-name="Path 11754" d="M10.911,47.5.762,49.772q.289,1.477.65,2.928l9.5-2.129Z" transform="translate(6.545 26.131)" fill="#ffec00"/>
      <path id="Path_11755" data-name="Path 11755" d="M27,74.6l-2.5,6.047q1.369.606,2.773,1.144L30.244,74.6Z" transform="translate(16.928 37.981)" fill="#ffec00"/>
      <path id="Path_11756" data-name="Path 11756" d="M30.7,74.6l-2.459,8.116q1.419.468,2.87.867L33.831,74.6Z" transform="translate(18.56 37.981)" fill="#ffec00"/>
      <path id="Path_11757" data-name="Path 11757" d="M11.162,44.5.188,45.387q.142,1.5.361,2.978l10.613-1.079Z" transform="translate(6.294 24.82)" fill="#ffec00"/>
      <path id="Path_11758" data-name="Path 11758" d="M13.076,76.772q-1.061-1.061-2.065-2.175L28.567,56.746h3.521Z" transform="translate(11.027 30.175)" fill="#ffec00"/>
      <path id="Path_11759" data-name="Path 11759" d="M30.879,58.15,13.781,77.9q1.119,1,2.288,1.937l14.81-17.509Z" transform="translate(12.238 30.789)" fill="#ffec00"/>
      <path id="Path_11760" data-name="Path 11760" d="M27.879,67.549,20.642,80.91q1.3.746,2.636,1.43l4.6-8.494Z" transform="translate(15.238 34.899)" fill="#ffec00"/>
      <path id="Path_11761" data-name="Path 11761" d="M29.465,62.518,17.014,79.725q1.214.88,2.471,1.7l9.98-14.545Z" transform="translate(13.652 32.699)" fill="#ffec00"/>
      <path id="Path_11762" data-name="Path 11762" d="M59.247,63.324c-3.708.354-7.063.706-7.768-.706s1.765-.953,2.383-1.006,5.032.229,6.62,0,3-.936,3-1.73-.441-1.411-3.178-1.588-11.475.325-11.3-1.515,3.353-1.133,4.148-1.133,9.269,0,10.062-5.561c.765-5.345-8.177-8.569-10.752-8.733,1.46.027,8.277.134,9.693-.181,1.59-.354,3.188-.706,3.184-1.677s-1.683-1.568-3.8-1.755-3.953-.716-3.963-1.421.609-.933,2.287-.864,4.589-.405,4.589-2.022-2.737-1.456-3.973-1.492a51.832,51.832,0,0,0-6.182-.065.525.525,0,0,1-.53-.26,13.712,13.712,0,0,0-2.2-3.014,7.372,7.372,0,0,0-5.924-1.5c-2.652.438-3.652,2.333-5.134,4.328a1.4,1.4,0,0,1-1.123.565H35.237s-5.561-.476-5.561,1.439,2.56,2.042,3.442,2.022,1.765,0,1.765,0,1.46-.2,1.57.42-.687,1.059-1.57,1.413a17.723,17.723,0,0,1-3.8.746c-.793.049-2.912.4-2.824,1.46.122,1.472,3.688,1.44,4.678,1.531a51.369,51.369,0,0,0,5.473.234s3.265-.04,4.06.024c0,0-11.829,1.421-11.829,7.538s8.121,7.127,9.533,7.2,4.678-.77,4.766.444S43,58.294,41.416,58.294s-5.12.088-6.532,0-4.237.068-4.237,1.092,1.148,2.28,3.619,2.226,3.619-.287,4.855-.318c0,0,3.531-.132,3.531.934,0,0-.441,2.009-3.531,1.684s-9.621-.964-10.239.548,2.206,2.31,3.531,2.307,22.682,0,28.422,0c4.217,0,4.326-1.148,4.414-1.856s-2.3-1.942-6-1.588M55.9,45.73s1.258.974.993,1.661-1.854,1.082-3.376.818a10.193,10.193,0,0,1-3.708-1.327,1.658,1.658,0,0,1,0-2.116c.53-.323,3.708,0,3.708,0a4.808,4.808,0,0,1,2.383.963M37.422,47.392c-.264-.687.993-1.661.993-1.661a4.808,4.808,0,0,1,2.383-.963s3.178-.323,3.707,0a1.655,1.655,0,0,1,0,2.116A13.239,13.239,0,0,1,40.8,48.21c-1.522.264-3.112-.132-3.376-.818m7.459,5.518c-.088.331-.443.6-3.748.331-.493-.039-3.692-.661-3.181-1.787a.96.96,0,0,1,.1-.17c.453-.6,2.423-.364,3.077-.295,3.116.332,3.836,1.59,3.748,1.92m-1.1-15.622c-.522-.033-2.057-.437-2.3-.943a.571.571,0,0,1-.059-.247c0-.813,1.927-1.371,2.489-1.391,1.854-.066,5.825-.066,6.488,0s2.383.2,2.449,1.125-.993,1.456-1.92,1.456-6.088.066-7.149,0m4.556,15.82a.727.727,0,0,1-.072-.135c-.5-1.2,3.159-1.8,3.619-1.848,3.839-.41,4.227-.158,4.377.139.3.586-.674,1.547-4.29,2.009-.713.092-3.163.55-3.633-.165" transform="translate(18.57 17.167)" fill="#47b"/>
    </g>
  </g>
</svg>
