<svg xmlns="http://www.w3.org/2000/svg" width="78.543" height="78.528" viewBox="0 0 78.543 78.528">
  <g id="天象" transform="translate(0.278 0.266)">
    <path id="Path_11932" data-name="Path 11932" d="M878.746,31.571H872.2a1.636,1.636,0,0,0,0,3.272h6.545a1.636,1.636,0,0,0,0-3.272Z" transform="translate(-802.384 -1.002)" fill="#fff" fill-rule="evenodd"/>
    <path id="Path_11933" data-name="Path 11933" d="M878.746,31.571H872.2a1.636,1.636,0,0,0,0,3.272h6.545a1.636,1.636,0,0,0,0-3.272Z" transform="translate(-802.384 -1.002)" fill="none" stroke="#fff" stroke-width="0.532"/>
    <path id="Path_11934" data-name="Path 11934" d="M873.788,16.137,868.12,19.41a1.636,1.636,0,0,0,1.584,2.863l.053-.03,5.667-3.27a1.636,1.636,0,0,0-1.636-2.835Z" transform="translate(-802.189 -0.607)" fill="#fff" fill-rule="evenodd"/>
    <path id="Path_11935" data-name="Path 11935" d="M873.788,16.137,868.12,19.41a1.636,1.636,0,0,0,1.584,2.863l.053-.03,5.667-3.27a1.636,1.636,0,0,0-1.636-2.835Z" transform="translate(-802.189 -0.607)" fill="none" stroke="#fff" stroke-width="0.532"/>
    <path id="Path_11936" data-name="Path 11936" d="M861.883,5.277l-3.273,5.668a1.636,1.636,0,0,0,2.835,1.636l3.271-5.668a1.636,1.636,0,0,0-2.8-1.688c-.01.017-.021.034-.03.052" transform="translate(-802.248 -0.513)" fill="#fff" fill-rule="evenodd"/>
    <path id="Path_11937" data-name="Path 11937" d="M861.883,5.277l-3.273,5.668a1.636,1.636,0,0,0,2.835,1.636l3.271-5.668a1.636,1.636,0,0,0-2.8-1.688c-.01.017-.021.034-.03.052" transform="translate(-802.248 -0.513)" fill="none" stroke="#fff" stroke-width="0.532"/>
    <path id="Path_11938" data-name="Path 11938" d="M846.218,1.9V8.448a1.636,1.636,0,1,0,3.272,0V1.9a1.636,1.636,0,1,0-3.272,0Z" transform="translate(-802.06 -0.266)" fill="#fff" fill-rule="evenodd"/>
    <path id="Path_11939" data-name="Path 11939" d="M846.218,1.9V8.448a1.636,1.636,0,1,0,3.272,0V1.9a1.636,1.636,0,1,0-3.272,0v0" transform="translate(-802.06 -0.266)" fill="none" stroke="#fff" stroke-width="0.532"/>
    <path id="Path_11940" data-name="Path 11940" d="M830.782,6.913l3.273,5.668a1.636,1.636,0,1,0,2.835-1.636l-3.274-5.667a1.636,1.636,0,0,0-2.864,1.584l.03.052Z" transform="translate(-801.641 -0.513)" fill="#fff" fill-rule="evenodd"/>
    <path id="Path_11941" data-name="Path 11941" d="M830.782,6.913l3.273,5.668a1.636,1.636,0,1,0,2.835-1.636l-3.274-5.667a1.636,1.636,0,0,0-2.864,1.584l.03.052Z" transform="translate(-801.641 -0.513)" fill="none" stroke="#fff" stroke-width="0.532"/>
    <path id="Path_11942" data-name="Path 11942" d="M819.925,18.972l5.668,3.273a1.637,1.637,0,1,0,1.636-2.835l-5.664-3.272a1.636,1.636,0,1,0-1.689,2.8l.052.03Z" transform="translate(-801.367 -0.607)" fill="#fff" fill-rule="evenodd"/>
    <path id="Path_11943" data-name="Path 11943" d="M819.925,18.972l5.668,3.273a1.637,1.637,0,1,0,1.636-2.835l-5.664-3.272a1.636,1.636,0,1,0-1.689,2.8l.052.03Z" transform="translate(-801.367 -0.607)" fill="none" stroke="#fff" stroke-width="0.532"/>
    <path id="Path_11944" data-name="Path 11944" d="M816.551,34.843H823.1a1.637,1.637,0,0,0,0-3.273h-6.547a1.637,1.637,0,0,0,0,3.273Z" transform="translate(-801.274 -1.002)" fill="#fff" fill-rule="evenodd"/>
    <path id="Path_11945" data-name="Path 11945" d="M816.551,34.843H823.1a1.637,1.637,0,0,0,0-3.273h-6.547a1.637,1.637,0,0,0,0,3.273h0" transform="translate(-801.274 -1.002)" fill="none" stroke="#fff" stroke-width="0.532"/>
    <path id="Path_11946" data-name="Path 11946" d="M875.425,47.235l-5.668-3.272a1.635,1.635,0,0,0-1.634,2.833l5.666,3.275a1.636,1.636,0,0,0,1.688-2.8l-.052-.03Z" transform="translate(-802.19 -1.213)" fill="#fff" fill-rule="evenodd"/>
    <path id="Path_11947" data-name="Path 11947" d="M875.425,47.235l-5.668-3.272a1.635,1.635,0,0,0-1.634,2.833l5.666,3.275a1.636,1.636,0,0,0,1.688-2.8l-.052-.03Z" transform="translate(-802.19 -1.213)" fill="none" stroke="#fff" stroke-width="0.532"/>
    <path id="Path_11948" data-name="Path 11948" d="M828.262,35.239a22.183,22.183,0,0,0-17.034,20.047,11.963,11.963,0,0,0,1.642,23.8h54.26a11.963,11.963,0,0,0,1.592-23.806,11.953,11.953,0,0,0-8.063-9.762,18.881,18.881,0,0,0-1.43-26.524,18.551,18.551,0,0,0-26.33,1.442,18.876,18.876,0,0,0-4.629,14.8ZM865.43,56.876a8.464,8.464,0,0,0-12.915-7.271,1.687,1.687,0,0,1-2.331-.559,1.732,1.732,0,0,1-.092-.172A18.6,18.6,0,0,0,825.257,39.9a18.805,18.805,0,0,0-10.693,16.979,1.7,1.7,0,0,1-1.689,1.71h0a8.541,8.541,0,0,0-.188,17.081h54.447a8.541,8.541,0,0,0,.188-17.081h-.188a1.7,1.7,0,0,1-1.7-1.706Zm-9.08-11.936a15.45,15.45,0,0,0,2.312-21.612A15.183,15.183,0,0,0,837.209,21a15.416,15.416,0,0,0-5.688,11.967,15.71,15.71,0,0,0,.1,1.767c.528-.04,1.061-.058,1.6-.058a22.008,22.008,0,0,1,19.133,11.182,11.707,11.707,0,0,1,4-.916" transform="translate(-800.997 -1.09)" fill="#fff" fill-rule="evenodd"/>
    <path id="Path_11949" data-name="Path 11949" d="M828.262,35.239a22.183,22.183,0,0,0-17.034,20.047,11.963,11.963,0,0,0,1.642,23.8h54.26a11.963,11.963,0,0,0,1.592-23.806,11.953,11.953,0,0,0-8.063-9.762,18.881,18.881,0,0,0-1.43-26.524,18.551,18.551,0,0,0-26.33,1.442,18.876,18.876,0,0,0-4.629,14.8ZM865.43,56.876a8.464,8.464,0,0,0-12.915-7.271,1.687,1.687,0,0,1-2.331-.559,1.732,1.732,0,0,1-.092-.172A18.6,18.6,0,0,0,825.257,39.9a18.805,18.805,0,0,0-10.693,16.979,1.7,1.7,0,0,1-1.689,1.71h0a8.541,8.541,0,0,0-.188,17.081h54.447a8.541,8.541,0,0,0,.188-17.081h-.188a1.7,1.7,0,0,1-1.7-1.706Zm-9.08-11.936a15.45,15.45,0,0,0,2.312-21.612A15.183,15.183,0,0,0,837.209,21a15.416,15.416,0,0,0-5.688,11.967,15.71,15.71,0,0,0,.1,1.767c.528-.04,1.061-.058,1.6-.058a22.008,22.008,0,0,1,19.133,11.182A11.707,11.707,0,0,1,856.351,44.94Z" transform="translate(-800.997 -1.09)" fill="none" stroke="#fff" stroke-width="0.532"/>
  </g>
</svg>
